<svg id="Layer_1" data-name="Layer 1" xmlns="http://www.w3.org/2000/svg" viewBox="0 0 450 450"><defs><style>.cls-1{fill:#fff;}.cls-2{fill:#8bc53f;}.cls-3{fill:#009345;}.cls-4{fill:#f9e988;}.cls-5{fill:#58595b;}</style></defs><title>coingecko-icon</title><g id="gecko"><path class="cls-1" d="M336.31,71.11c-9.94-8.07-19.92-16.69-31.47-23a119.12,119.12,0,0,0-37.18-12.46,111.64,111.64,0,0,0-38.93,0l0,1.32c12.67,2.49,24.79,5.06,36.72,8.49s23.28,8,34.73,12.55,23.26,9.26,33.54,16.59a114.64,114.64,0,0,1,26.41,26.66A332.31,332.31,0,0,1,379.82,133a281.1,281.1,0,0,1,15,33.66c9.06,22.95,14.81,47.07,19.05,72.38h1.25c4.22-25.54,1.28-52.31-7.17-77.16a172.41,172.41,0,0,0-17.46-35.18,147.85,147.85,0,0,0-24.93-30.15C356.13,87.46,346.24,79.19,336.31,71.11Z"/><path class="cls-2" d="M280.93,132.65c.5,1,.95,2.14,1.36,3.28A14.4,14.4,0,0,0,280.93,132.65Z"/><path class="cls-1" d="M336.59,222.75a8.49,8.49,0,1,0-8.53-8.44A8.5,8.5,0,0,0,336.59,222.75Z"/><path class="cls-3" d="M282.38,136.18l-.09-.25c-.41-1.14-.86-2.23-1.36-3.28-9.35-19.77-34.37-22.18-55.17-15.7h0l.2,0c10.45.86,46.9,12.69,56.4,19.19Z"/><path class="cls-4" d="M224.11,22.57H224c-111.86.55-202.09,91.68-201.54,203.54A201.65,201.65,0,0,0,58.37,340.23c18.2-40.78,20.44-76.41,24.45-124.47,3-43.63,15.47-79.83,89.92-100.34,17.12-4.17,35-2.66,53,1.59l.2,0-.2,0h0c20.8-6.48,45.82-4.07,55.17,15.7a14.4,14.4,0,0,1,1.36,3.28l.09.25,0,0s0,.06,0,.08c15.43,6.1,30.66,12.13,45.36,16.38,77.79,21.19,69.93,63.72,31.72,99.27-9.41,9.71-19.45,18.84-26,25.48-29.1,29.66-81,87.71-72.56,147h0l.05.11c95.13-17,167.13-100.41,166.63-200.36C427,112.29,335.93,22.08,224.11,22.57ZM413.85,239c-4.24-25.31-10-49.43-19.05-72.38a281.1,281.1,0,0,0-15-33.66,332.31,332.31,0,0,0-19.71-31.74A114.64,114.64,0,0,0,333.7,74.56C323.42,67.23,311.6,62.48,300.16,58s-22.79-9.12-34.73-12.55-24.05-6-36.72-8.49l0-1.32a111.64,111.64,0,0,1,38.93,0,119.12,119.12,0,0,1,37.18,12.46c11.55,6.35,21.53,15,31.47,23s19.82,16.35,29.23,25.4a147.85,147.85,0,0,1,24.93,30.15,172.41,172.41,0,0,1,17.46,35.18c8.45,24.85,11.39,51.62,7.17,77.16Z"/><circle class="cls-5" cx="196.31" cy="175.49" r="27.55" transform="translate(-52.21 88.48) rotate(-22.5)"/><path class="cls-1" d="M235.46,175.12a39.16,39.16,0,1,0-39.14,39.2,39.17,39.17,0,0,0,39.14-39.2ZM196.31,203a27.55,27.55,0,1,1,27.55-27.55A27.55,27.55,0,0,1,196.31,203Z"/><path class="cls-2" d="M224,6C103.08,6.54,5.47,105,6,226s99,218.56,220,218,218.56-99,218-220h0C443.46,103.08,345,5.47,224,6ZM340.69,251.49c12.11-5,24.09-10.79,34.4-19.05l.43.5c-9.85,9-21.58,15.63-33.52,21.5a213.89,213.89,0,0,1-37.61,13.7c-12.95,3.34-26.45,5.87-40.13,4.63s-27.66-5.89-36.72-16.14l.43-.49c11.1,7.2,23.93,9.74,36.69,10.11a172,172,0,0,0,38.56-3.18A209.87,209.87,0,0,0,340.69,251.49Zm-12.63-37.18a8.49,8.49,0,1,1,8.53,8.44A8.48,8.48,0,0,1,328.06,214.31Zm-131.74,0a39.17,39.17,0,1,1,39.14-39.2v0A39.17,39.17,0,0,1,196.32,214.32Zm64.62,210.15-.05-.11h0c-8.42-59.28,43.46-117.33,72.56-147,6.56-6.64,16.6-15.77,26-25.48,38.21-35.55,46.07-78.08-31.72-99.27-14.7-4.25-29.93-10.28-45.36-16.38,0,0,0-.05,0-.08-9.5-6.5-46-18.33-56.4-19.19l-.2,0c-18.06-4.25-35.9-5.76-53-1.59-74.45,20.51-86.88,56.71-89.92,100.34-4,48.06-6.25,83.69-24.45,124.47A201.65,201.65,0,0,1,22.49,226.11C21.94,114.25,112.17,23.12,224,22.57h.08C335.93,22.08,427,112.29,427.57,224.11,428.07,324.06,356.07,407.45,260.94,424.47Z"/><path class="cls-5" d="M304.39,268.14A213.89,213.89,0,0,0,342,254.44c11.94-5.87,23.67-12.52,33.52-21.5l-.43-.5c-10.31,8.26-22.29,14.05-34.4,19.05a209.87,209.87,0,0,1-37.47,11.58,172,172,0,0,1-38.56,3.18c-12.76-.37-25.59-2.91-36.69-10.11l-.43.49c9.06,10.25,23,14.9,36.72,16.14S291.44,271.48,304.39,268.14Z"/></g></svg>