<?xml version="1.0" encoding="utf-8"?>
<!-- Generator: Adobe Illustrator 22.1.0, SVG Export Plug-In . SVG Version: 6.00 Build 0)  -->
<svg version="1.1" id="Layer_1" xmlns="http://www.w3.org/2000/svg" xmlns:xlink="http://www.w3.org/1999/xlink" x="0px" y="0px"
	 viewBox="0 0 450 450" style="enable-background:new 0 0 450 450;" xml:space="preserve">
<style type="text/css">
	.st0{fill:#FFFFFF;}
	.st1{fill:#8BC53F;}
	.st2{fill:#009345;}
	.st3{fill:#F9E988;}
	.st4{fill:#58595B;}
	.st5{display:none;fill:#24292F;}
	.st6{display:none;}
	.st7{display:inline;fill:#4285F4;}
	.st8{display:inline;fill:#34A853;}
	.st9{display:inline;fill:#FBBC05;}
	.st10{display:inline;fill:#EA4335;}
	.st11{display:inline;fill:#2962FF;}
</style>
<path class="st0" d="M336.3,71.1c-9.9-8.1-19.9-16.7-31.5-23c-11.6-6.2-24.2-10.4-37.2-12.5c-12.9-2.3-26.1-2.3-38.9,0l0,1.3
	c12.7,2.5,24.8,5.1,36.7,8.5c11.9,3.4,23.3,8,34.7,12.6c11.4,4.5,23.3,9.3,33.5,16.6c10.2,7.4,19.1,16.4,26.4,26.7
	c7.2,10.2,13.7,20.8,19.7,31.7c5.7,10.9,10.7,22.1,15,33.7c9.1,22.9,14.8,47.1,19,72.4h1.3c4.2-25.5,1.3-52.3-7.2-77.2
	c-4.5-12.4-10.3-24.2-17.5-35.2c-6.9-11.1-15.3-21.2-24.9-30.2C356.1,87.5,346.2,79.2,336.3,71.1z"/>
<path class="st1" d="M280.9,132.7c0.5,1,1,2.1,1.4,3.3C282,134.9,281.6,133.8,280.9,132.7z"/>
<path class="st0" d="M336.6,222.7c4.7,0,8.5-3.8,8.4-8.5c0-4.7-3.9-8.5-8.5-8.4c-4.7,0-8.5,3.8-8.4,8.5
	C328.1,219,331.9,222.8,336.6,222.7z"/>
<path class="st2" d="M282.4,136.2c0-0.1-0.1-0.2-0.1-0.3c-0.4-1.1-0.9-2.2-1.4-3.3c-9.4-19.8-34.4-22.2-55.2-15.7h0
	c0.1,0,0.1,0,0.2,0C236.4,117.8,272.9,129.7,282.4,136.2C282.4,136.2,282.4,136.2,282.4,136.2z"/>
<path class="st3" d="M224.1,22.6C224.1,22.6,224.1,22.6,224.1,22.6C112.2,23.1,21.9,114.2,22.5,226.1c0.2,42.4,13.4,81.7,35.9,114.1
	c18.2-40.8,20.4-76.4,24.4-124.5c3-43.6,15.5-79.8,89.9-100.3c17.1-4.2,35-2.7,53,1.6c0.1,0,0.1,0,0.2,0c-0.1,0-0.1,0-0.2,0h0
	c20.8-6.5,45.8-4.1,55.2,15.7c0.6,1.2,1.1,2.3,1.4,3.3c0,0.1,0.1,0.2,0.1,0.3c0,0,0,0,0,0c0,0,0,0.1,0,0.1
	c15.4,6.1,30.7,12.1,45.4,16.4c77.8,21.2,69.9,63.7,31.7,99.3c-9.4,9.7-19.5,18.8-26,25.5c-29.1,29.7-81,87.7-72.6,147c0,0,0,0,0,0
	c0,0.1,0,0.1,0,0.1c95.1-17,167.1-100.4,166.6-200.4C427,112.3,335.9,22.1,224.1,22.6z M413.8,239c-4.2-25.3-10-49.4-19-72.4
	c-4.3-11.5-9.3-22.8-15-33.7c-6-10.9-12.5-21.5-19.7-31.7c-7.3-10.3-16.2-19.3-26.4-26.7c-10.3-7.3-22.1-12.1-33.5-16.6
	c-11.4-4.5-22.8-9.1-34.7-12.6c-11.9-3.4-24.1-6-36.7-8.5l0-1.3c12.9-2.3,26.1-2.3,38.9,0c13,2.1,25.6,6.3,37.2,12.5
	c11.6,6.3,21.5,15,31.5,23c9.9,8.1,19.8,16.3,29.2,25.4c9.6,8.9,18,19,24.9,30.2c7.1,11,13,22.8,17.5,35.2
	c8.5,24.9,11.4,51.6,7.2,77.2H413.8z"/>
<ellipse transform="matrix(0.9239 -0.3827 0.3827 0.9239 -52.2139 88.4812)" class="st4" cx="196.3" cy="175.5" rx="27.5" ry="27.5"/>
<path class="st0" d="M235.5,175.1c0-21.6-17.5-39.1-39.2-39.1c-21.6,0-39.2,17.6-39.2,39.2c0,21.6,17.6,39.2,39.2,39.2
	C218,214.3,235.5,196.8,235.5,175.1L235.5,175.1z M196.3,203c-15.2,0-27.5-12.3-27.5-27.5s12.3-27.5,27.5-27.5
	c15.2,0,27.5,12.3,27.5,27.5S211.5,203,196.3,203z"/>
<path class="st1" d="M224,6C103.1,6.5,5.5,105,6,226c0.5,120.9,99,218.6,220,218c120.9-0.5,218.6-99,218-220c0,0,0,0,0,0
	C443.5,103.1,345,5.5,224,6z M340.7,251.5c12.1-5,24.1-10.8,34.4-19l0.4,0.5c-9.9,9-21.6,15.6-33.5,21.5
	c-12.1,5.7-24.7,10.3-37.6,13.7c-12.9,3.3-26.5,5.9-40.1,4.6c-13.7-1.2-27.7-5.9-36.7-16.1l0.4-0.5c11.1,7.2,23.9,9.7,36.7,10.1
	c12.9,0.4,25.9-0.7,38.6-3.2C316,260.4,328.6,256.5,340.7,251.5z M328.1,214.3c0-4.7,3.8-8.5,8.4-8.5c4.7,0,8.5,3.8,8.5,8.4
	c0,4.7-3.8,8.5-8.4,8.5C331.9,222.8,328.1,219,328.1,214.3z M196.3,214.3c-21.6,0-39.2-17.5-39.2-39.2c0-21.6,17.5-39.2,39.2-39.2
	c21.6,0,39.1,17.5,39.2,39.1l0,0C235.5,196.8,218,214.3,196.3,214.3z M260.9,424.5c0,0,0-0.1,0-0.1c0,0,0,0,0,0
	c-8.4-59.3,43.5-117.3,72.6-147c6.6-6.6,16.6-15.8,26-25.5c38.2-35.6,46.1-78.1-31.7-99.3c-14.7-4.3-29.9-10.3-45.4-16.4
	c0,0,0-0.1,0-0.1c-9.5-6.5-45.9-18.3-56.4-19.2c-0.1,0-0.1,0-0.2,0c-18.1-4.3-35.9-5.8-53-1.6c-74.4,20.5-86.9,56.7-89.9,100.3
	c-4,48.1-6.3,83.7-24.4,124.5c-22.4-32.4-35.7-71.7-35.9-114.1C21.9,114.2,112.2,23.1,224,22.6c0,0,0,0,0.1,0
	c111.8-0.5,202.9,89.7,203.5,201.5C428.1,324.1,356.1,407.5,260.9,424.5z"/>
<path class="st4" d="M304.4,268.1c12.9-3.4,25.5-8,37.6-13.7c11.9-5.9,23.7-12.5,33.5-21.5l-0.4-0.5c-10.3,8.3-22.3,14-34.4,19
	c-12.1,5-24.6,8.9-37.5,11.6c-12.7,2.5-25.6,3.6-38.6,3.2c-12.8-0.4-25.6-2.9-36.7-10.1l-0.4,0.5c9.1,10.3,23,14.9,36.7,16.1
	C277.9,274,291.4,271.5,304.4,268.1z"/>
<path id="github" class="st5" d="M225.2,10.6C104.5,10.6,7,108.9,7,230.4C7,327.6,69.5,409.8,156.2,439c10.8,2.2,14.8-4.7,14.8-10.5
	c0-5.1-0.4-22.6-0.4-40.8c-60.7,13.1-73.3-26.2-73.3-26.2c-9.8-25.5-24.2-32-24.2-32C53.2,316,74.5,316,74.5,316
	c22,1.5,33.6,22.6,33.6,22.6c19.5,33.5,50.9,24,63.6,18.2c1.8-14.2,7.6-24,13.7-29.5c-48.4-5.1-99.3-24-99.3-108.4
	c0-24,8.7-43.7,22.4-59c-2.2-5.5-9.8-28,2.2-58.2c0,0,18.4-5.8,60,22.6c17.8-4.8,36.1-7.3,54.5-7.3c18.4,0,37.2,2.6,54.5,7.3
	c41.5-28.4,60-22.6,60-22.6c11.9,30.2,4.3,52.8,2.2,58.2c14.1,15.3,22.4,34.9,22.4,59c0,84.4-50.9,103-99.7,108.4
	c7.9,6.9,14.8,20,14.8,40.8c0,29.5-0.4,53.1-0.4,60.4c0,5.8,4,12.7,14.8,10.6C380.5,409.8,443,327.6,443,230.4
	C443.4,108.9,345.5,10.6,225.2,10.6z"/>
<g id="google" class="st6">
	<path class="st7" d="M434,185.5H229.3v84.2h117c-5.1,27.1-20.5,50-43.7,65.4l70.5,54.7c41.1-37.9,64.8-93.7,64.8-159.8
		C438,214.5,436.6,199.7,434,185.5z"/>
	<path class="st8" d="M229.3,356c-56.5,0-104.5-38.1-121.7-89.5h-0.3c-0.5,0.4-15.7,12.1-15.7,12.1l-56.3,43.9v0.2
		c35.8,70.9,109.1,119.7,194,119.7c58.7,0,107.9-19.4,143.8-52.6l-70.5-54.7C283.3,348.1,258.6,356,229.3,356z"/>
	<path class="st9" d="M107.4,266.5c0,0,0.3-0.2,0.3-0.2c-4.3-13-6.9-26.9-6.9-41.3c0-14.4,2.6-28.3,6.9-41.3l-72.3-56.1
		C20.5,156.8,12,189.8,12,225c0,35.2,8.5,68.2,23.3,97.4l56.3-43.9C91.6,278.5,106.9,266.9,107.4,266.5z"/>
	<path class="st10" d="M229.3,94.2c32,0,60.5,11.1,83.2,32.4l62.2-62.2C337,29.2,288,7.7,229.3,7.7c-85,0-158.3,48.8-194,119.9
		l72.3,56.1C124.8,132.3,172.8,94.2,229.3,94.2z"/>
</g>
<g id="tradingview" class="st6">
	<polygon class="st11" points="6,200.3 92.4,200.3 92.4,336 178.7,336 178.7,114 6,114 	"/>
	<polygon class="st11" points="345.3,114 252.8,336 351.5,336 444,114 	"/>
	
		<ellipse transform="matrix(0.9732 -0.2298 0.2298 0.9732 -30.7593 62.4409)" class="st11" cx="252.8" cy="163.3" rx="49.4" ry="49.4"/>
</g>
</svg>
