<svg id="coingecko" xmlns="http://www.w3.org/2000/svg" viewBox="0 0 450 450"><defs><style>.cls-1{fill:#8dc63f;}.cls-2{fill:#f9e988;}.cls-3{fill:#fff;}.cls-4{fill:#8bc53f;}.cls-5{fill:#009345;}.cls-6{fill:#58595b;}</style></defs><title>coingecko-icon</title><g id="coingecko-2" data-name="coingecko"><path class="cls-1" d="M444,224c.53,121-97.08,219.43-218,220S6.54,346.92,6,226,103.08,6.54,224,6h0c121-.53,219.43,97.08,220,218Z"/><path class="cls-2" d="M427.57,224.11C428.12,336,337.89,427.1,226,427.65S23,338,22.49,226.11,112.17,23.12,224,22.57h.08C335.93,22.08,427,112.29,427.57,224.11Z"/><path class="cls-3" d="M228.73,35.61a111.64,111.64,0,0,1,38.93,0,119.12,119.12,0,0,1,37.18,12.46c11.55,6.35,21.53,15,31.47,23.05s19.82,16.34,29.23,25.39a147.85,147.85,0,0,1,24.93,30.15,172.41,172.41,0,0,1,17.46,35.18c8.45,24.85,11.39,51.62,7.17,77.16h-1.25c-4.24-25.31-10-49.43-19.05-72.38a281.1,281.1,0,0,0-15-33.66,332.31,332.31,0,0,0-19.71-31.74A114.64,114.64,0,0,0,333.7,74.56C323.42,67.23,311.6,62.48,300.16,58s-22.79-9.13-34.73-12.56-24.05-6-36.72-8.49Z"/><path class="cls-4" d="M327.74,152.62c-14.7-4.25-29.93-10.28-45.36-16.38-.89-3.87-4.31-8.69-11.25-14.58-10.08-8.74-29-8.52-45.37-4.65-18.06-4.25-35.9-5.76-53-1.59C32.69,154,112.1,248.12,60.68,342.74,68,358.26,146.86,448.81,261,424.51c0,0-39-93.77,49-138.78C381.42,249.09,433,181.3,327.74,152.62Z"/><path class="cls-3" d="M345,214.21a8.49,8.49,0,1,1-8.54-8.44A8.5,8.5,0,0,1,345,214.21Z"/><path class="cls-5" d="M225.76,117c10.2.73,47.1,12.69,56.62,19.23-7.93-23-34.64-26.07-56.62-19.23Z"/><path class="cls-3" d="M235.47,175.14A39.17,39.17,0,1,1,196.29,136h0a39.17,39.17,0,0,1,39.17,39.13Z"/><path class="cls-6" d="M223.86,175.49a27.55,27.55,0,1,1-27.55-27.55h0A27.55,27.55,0,0,1,223.86,175.49Z"/><path class="cls-4" d="M376.76,231.48c-31.74,22.36-67.83,39.32-119,39.32-24,0-28.82-25.39-44.66-13-8.17,6.44-37,20.85-59.86,19.76S93.28,263.09,83,214.26c-4.09,48.83-6.19,84.77-24.58,126,36.5,58.44,123.53,103.53,202.52,84.11-8.42-59.28,43.46-117.33,72.56-147,11.11-11.25,32.22-29.61,43.31-45.88Z"/><path class="cls-6" d="M375.52,232.94c-9.85,9-21.58,15.63-33.52,21.5a213.89,213.89,0,0,1-37.61,13.7c-12.95,3.34-26.45,5.87-40.13,4.63s-27.66-5.89-36.72-16.14l.43-.49c11.1,7.2,23.93,9.74,36.69,10.11a172,172,0,0,0,38.56-3.18,209.87,209.87,0,0,0,37.47-11.58c12.11-5,24.09-10.79,34.4-19.05Z"/></g></svg>