<svg xmlns="http://www.w3.org/2000/svg" viewBox="0 0 450 450"><defs><style>.cls-1{fill:#939aff;}</style></defs><title>github-icon</title><g id="github"><path class="cls-1" d="M263.29,324.7c13.93-1.81,26.67-4.2,38.95-8.65,27.9-10.11,45.84-29.45,53.29-58.12,5.19-20,6.88-40.3,2-60.71A77.18,77.18,0,0,0,341.07,165c-1.87-2.21-2.39-4-1.49-6.87,5.26-16.94,3.59-33.64-2.2-50.17-1.4-4-4.41-3.28-7.16-3.1-11.07.74-21.13,4.81-30.9,9.73-2.9,1.46-6.08,2.66-8.49,4.73-8.24,7.11-16.88,7.22-27.29,4.87-29.29-6.62-58.72-5.15-87.81,2.09a8.67,8.67,0,0,1-7.62-1.43c-12.85-8.32-26.1-15.81-41.32-19-12.28-2.61-13.51-1.91-16.71,10.26-3.81,14.46-4.08,28.88.57,43.22.55,1.69.63,2.93-.64,4.4C90.28,186.52,87.12,213.38,91.13,242c2.39,17,7.4,33,17.89,46.78,14,18.47,33.61,27.55,55.6,32.33,6.92,1.5,13.95,2.53,21.45,3.87-7.45,7.55-11.07,16.61-12.7,26.55-.32,1.95-1.57,2.64-3.15,3.26-22.46,8.85-44.7,5.37-58.72-17.9-6.8-11.29-15.86-19.65-29.2-22.47a18.62,18.62,0,0,0-10.56.59c-3,1.11-3.65,3-1.69,5.64a19,19,0,0,0,5.76,5.19c11.52,6.7,18.74,17,23.45,29,8.42,21.44,25.18,29.84,46.8,31.08A81.36,81.36,0,0,0,168.33,384c2.72-.6,3.71-.08,3.7,3,0,11.86.27,23.71.33,35.57,0,9.13-6.74,13.61-16.22,10.45A190.55,190.55,0,0,1,103,405.78C43.89,362.19,12,303.69,13,230.06,14.06,140.83,56.19,75.33,136.23,36.18,211.35-.57,304,14.07,365.82,70.31,414.93,115,438.77,171,437,237.27,435.5,291.73,415.43,339,377.93,378.71c-23.18,24.52-50.84,42.21-82.51,53.71a19.27,19.27,0,0,1-6.12,1.44c-7.83.19-12.07-3.37-12.1-11.21-.07-15.1.18-30.2.41-45.3.13-8.45.34-16.91-1-25.28C275,341.94,271.33,332.73,263.29,324.7Z"/></g></svg>