<svg xmlns="http://www.w3.org/2000/svg" viewBox="0 0 450 450"><defs><style>.cls-1{fill:#fff;}</style></defs><title>github-icon</title><g id="github"><path id="github-2" data-name="github" class="cls-1" d="M225.18,10.63C104.53,10.63,7,108.88,7,230.43A219.61,219.61,0,0,0,156.19,439C167,441.14,171,434.22,171,428.4c0-5.09-.35-22.56-.35-40.76-60.69,13.1-73.33-26.2-73.33-26.2-9.76-25.48-24.21-32-24.21-32C53.24,316,74.55,316,74.55,316c22,1.46,33.6,22.57,33.6,22.57,19.5,33.47,50.93,24,63.57,18.19,1.8-14.19,7.59-24,13.73-29.48-48.41-5.09-99.34-24-99.34-108.44,0-24,8.66-43.67,22.39-58.95-2.16-5.46-9.75-28,2.17-58.23,0,0,18.43-5.82,60,22.56a208,208,0,0,1,109.09,0c41.55-28.38,60-22.56,60-22.56,11.92,30.2,4.33,52.77,2.16,58.23,14.09,15.28,22.4,34.93,22.4,58.95,0,84.43-50.93,103-99.7,108.44,7.95,6.92,14.81,20,14.81,40.76,0,29.48-.36,53.13-.36,60.41,0,5.82,4,12.74,14.81,10.55A219.61,219.61,0,0,0,443,230.43C443.36,108.88,345.47,10.63,225.18,10.63Z"/></g></svg>