<svg xmlns="http://www.w3.org/2000/svg" viewBox="0 0 450 450"><defs><style>.cls-1{fill:#6e40c9;}</style></defs><title>github-icon</title><g id="github"><path class="cls-1" d="M264.27,327.26c14.3-1.86,27.36-4.31,40-8.87,28.62-10.37,47-30.2,54.66-59.62,5.33-20.52,7.06-41.33,2.1-62.26a79.29,79.29,0,0,0-16.93-33.06c-1.91-2.27-2.45-4-1.52-7,5.39-17.37,3.68-34.5-2.26-51.46-1.43-4.08-4.52-3.36-7.35-3.17-11.35.75-21.67,4.92-31.69,10-3,1.5-6.24,2.73-8.7,4.85-8.46,7.3-17.32,7.41-28,5-30-6.79-60.23-5.29-90.07,2.15a8.92,8.92,0,0,1-7.81-1.47c-13.18-8.54-26.78-16.22-42.38-19.54-12.6-2.68-13.86-2-17.15,10.52-3.9,14.83-4.17,29.63.59,44.33.57,1.74.65,3-.65,4.52-20.25,23.43-23.49,51-19.37,80.32,2.45,17.42,7.58,33.8,18.35,48,14.38,19,34.47,28.26,57,33.16,7.11,1.54,14.32,2.59,22,4-7.64,7.75-11.36,17-13,27.23-.33,2-1.6,2.71-3.23,3.35-23,9.07-45.85,5.51-60.23-18.37-7-11.57-16.27-20.15-29.95-23.05a19.07,19.07,0,0,0-10.82.62c-3,1.13-3.75,3.05-1.75,5.78A19.63,19.63,0,0,0,72,328.41c11.81,6.87,19.21,17.43,24,29.75,8.63,22,25.83,30.61,48,31.87a83.52,83.52,0,0,0,22.84-1.93c2.79-.62,3.81-.09,3.8,3,0,12.15.27,24.31.34,36.47.05,9.37-6.92,14-16.64,10.73A195.34,195.34,0,0,1,99.9,410.43C39.24,365.72,6.55,305.71,7.5,230.19,8.64,138.66,51.85,71.48,133.94,31.33,211-6.36,306.06,8.65,369.43,66.34c50.38,45.85,74.84,103.28,73,171.24-1.52,55.87-22.11,104.37-60.57,145.08-23.77,25.15-52.14,43.3-84.63,55.09a20,20,0,0,1-6.27,1.48c-8,.19-12.38-3.46-12.42-11.5-.07-15.49.18-31,.42-46.47.14-8.67.35-17.34-1-25.93C276.33,345,272.53,335.5,264.27,327.26Z"/></g></svg>