<svg xmlns="http://www.w3.org/2000/svg" viewBox="0 0 450 450"><defs><style>.cls-1{fill:#201f1f;}.cls-2{fill:#9bd9ef;}.cls-3{fill:#7cb9e5;}.cls-4{fill:#9cd9ef;}.cls-5{fill:#030303;}.cls-6{fill:#f3c9b0;}.cls-7{fill:#c39a85;}.cls-8{fill:#fefefe;}.cls-9{fill:#fcfcfc;}.cls-10{fill:#99d5eb;}.cls-11{fill:#98d4e9;}.cls-12{fill:#99d6eb;}.cls-13{fill:#98d4ea;}.cls-14{fill:#97d3e8;}.cls-15{fill:#95cfe4;}.cls-16{fill:#ac5c51;}.cls-17{fill:#ab5c51;}.cls-18{fill:#fdfcfc;}.cls-19{fill:#fdfbfb;}</style></defs><title>github-icon</title><g id="github"><path class="cls-1" d="M189.74,250.54c-5.52-.95-11.06-1.8-16.56-2.85-14.36-2.77-28.19-7.05-40.78-14.75a71,71,0,0,1-25.29-25.78,3.14,3.14,0,0,0-3.37-1.87c-30.7,1.35-61.09,4.86-90.83,13-.66.18-1.8,1.09-2.17-.27s1-1.1,1.69-1.28a362.61,362.61,0,0,1,56.41-10.45c11.15-1.22,22.33-2.19,33.55-2.4,2.61-.05,2.21-.85,1.64-2.83-1.21-4.27-3.67-5.34-8-5.43-27.77-.53-55.38.88-82.74,5.93-1,.19-2.89,1.38-3.22-.18s1.75-1.17,2.78-1.37c27.26-5.1,54.77-6.65,82.44-5.92,1.82.05,3.63,0,5.69,0a122.45,122.45,0,0,1-4-15.84c-2.73-17.92-4.12-35.81,1.39-53.52a74.41,74.41,0,0,1,15.42-27.29,4.18,4.18,0,0,0,1-4.73c-5.36-16.88-3.6-33.45,2.49-49.79.63-1.71,1.91-1.67,3.23-1.73,6.92-.31,13.5,1.38,19.92,3.69,11.06,4,21.19,9.75,30.9,16.29a5,5,0,0,0,4.48.82,194.66,194.66,0,0,1,91.65-1.15,5.92,5.92,0,0,0,5-1c11.35-7.38,23.13-13.89,36.39-17.26a43.11,43.11,0,0,1,12.8-1.43,3.06,3.06,0,0,1,3.13,2.32C330.29,58.61,332.12,74,328,89.73a3.19,3.19,0,0,0,1,3.49c15.19,16,22.24,35.17,22.11,57.14-.08,14.7-.82,29.31-4.59,43.73,2.41,0,4.7.06,7,0,28.06-.78,56,.73,83.6,5.86.28.05.63,0,.85.13.7.45,2.36-.22,2.09,1.23s-1.63.51-2.4.37c-29.17-5.37-58.59-6.89-88.19-5.89-2.78.1-3.95.93-4.67,3.53-1.21,4.36-1.38,4.34,3.22,4.52,30.15,1.16,59.93,4.87,89.12,12.77.55.15,1.1.3,1.65.48.36.11.75.29.57.77s-.31.92-1,.74c-1.2-.32-2.41-.59-3.62-.91a370.58,370.58,0,0,0-59.06-10.33c-10.22-1-20.45-1.58-30.7-2.07-1.19-.06-2.34-.35-3.07,1.26-8.33,18.31-23.26,28.91-41.64,35.43-12.34,4.38-25.13,6.68-38.1,8.08-.65.07-1.37-.1-1.89.48-1,1.13-2.44,1-3.75,1q-30.27,0-60.54,0A13.73,13.73,0,0,1,189.74,250.54Z"/><path class="cls-1" d="M174.32,274.78c1.77-5.66,3.65-11.27,7.18-16.14.28-.37.61-.72.91-1.07,5.19-2.85,11-3,16.67-3.72,7.23-.87,14.53-.25,21.77-.71a140.32,140.32,0,0,1,24,.74c9.17,1,17.49,4.07,24,11,2.57,2.72,4.17,6.1,6.28,9.13,1.31,4.54,1.33,9.22,1.36,13.87.1,12.24,0,24.48,0,36.72,0,1,.11,2.09.16,3.13.95.9.82,2.09.83,3.22,0,2.58-.1,5.16,0,7.73.36,6.76,3.33,12,9.19,15.56a25,25,0,0,1,4.15,2.5c2.23,2,2.5,4,.9,6.53-3.13,2.43-6.79,1.58-10.22,1.36a32.27,32.27,0,0,1-11.89-2.84c-9.71-4-14.23-11.47-14.45-21.75-.1-5,0-10,0-14.95-.14-8.7,0-17.4-.07-26.1A38.55,38.55,0,0,0,253,286a8,8,0,0,0-2.33-3.84c-.19,14.48,0,28.47-.12,42.45,0,10,0,19.91,0,29.86,0,6.51,1.63,12.33,7.25,16.36,2.82,4.45,2,7.08-2.87,9.09a8,8,0,0,1-2.34.28,37,37,0,0,1-18.19-7.67A22.35,22.35,0,0,1,226.88,355c.13-24.59.22-49.18.14-73.77a25.61,25.61,0,0,0-.14-4.29c-1.39-2.53-2-2.6-3.84-.39a20.07,20.07,0,0,0-.15,4c-.07,24.79.09,49.57.09,74.35a23.53,23.53,0,0,1-7.5,17.7c-6.16,4.69-12.84,8-20.85,7.59a4.34,4.34,0,0,1-.95-.2c-4.15-2.61-4.45-4.95-1.2-9.34,5.65-3.47,7-8.8,6.92-15-.14-10.3-.08-20.61,0-30.92-.13-14.22,0-28.45-.1-43-1.59.71-1.9,2-2.31,3.05a37.49,37.49,0,0,0-2.2,12.94c-.07,9.08.07,18.16-.06,27.24,0,5.18.11,10.36-.05,15.53-.3,10.08-5,17.27-14.36,21.3a43.37,43.37,0,0,1-20.13,2.79c-1.87-.5-3.45-1.38-3.68-3.51s1-3.81,2.89-4.88c1.57-.91,3.27-1.58,4.84-2.51,5.4-3.18,8.19-7.85,8.16-14.16,0-2.68,0-5.36,0-8,0-1.14-.11-2.33.83-3.24.25-10,.35-20-.05-29.94-.43-7.45-.7-14.9.5-22.31A2.77,2.77,0,0,1,174.32,274.78Z"/><path class="cls-2" d="M291.63,362.63c1.09-2.72.35-4.88-2.58-6.24-9.1-4.22-12.79-11.53-12.52-21.23.07-2.48.11-5,.16-7.44,18.17,3,36,7.19,52.36,16.11,5.48,3,10.59,6.5,14.41,11.63,5.77,7.77,5.27,16.26-1.4,23.47-6.42,6.92-14.56,11.17-23.07,14.69-13.21,5.48-27.08,8.71-41.14,11.13a6.23,6.23,0,0,1-1.14,0,4,4,0,0,1-.77-3c0-6.39-.12-12.79,0-19.18a20.37,20.37,0,0,1,12.94-18A6.6,6.6,0,0,0,291.63,362.63Z"/><path class="cls-2" d="M173.22,328.29a79.12,79.12,0,0,1-.06,13.42c-.69,6.55-4.53,10.92-10.32,13.72-1,.5-2.1.89-3.1,1.44a4.52,4.52,0,0,0-2.72,4.05c0,1.94,1.54,2.44,2.91,3.1a19.78,19.78,0,0,1,14,19.41q0,8.61,0,17.22c0,1.21.22,2.51-.78,3.53-19.11-3.34-37.79-8-54.33-18.75a33.23,33.23,0,0,1-9.35-8.8c-5.46-7.87-4.78-15.94,1.75-23C117.32,347.07,125,343,133,339.52,145.9,334,159.43,330.64,173.22,328.29Z"/><path class="cls-1" d="M172,298.35c-23,5.32-45.86,1.17-58.93-22.33q-2.5-4.5-5.18-8.92a37.56,37.56,0,0,0-16-14.81,19.88,19.88,0,0,1-6.59-4.52c-2-2.3-1.64-4.17,1.27-5.29,4.62-1.78,9.25-1.07,13.77.44,8.73,2.91,15.19,8.68,20.07,16.33,2.69,4.21,5.43,8.36,9.19,11.7,11.38,10.12,24.34,10.87,38.16,6.36,1.81-.59,3.57-1.35,5.35-2,1,1.2.35,2.3-.2,3.41-3.81,2-3.8,2-.56,4.94a1.48,1.48,0,0,1,.25.52c.51,4,.16,8.1.2,12.14A3.05,3.05,0,0,1,172,298.35Z"/><path class="cls-3" d="M291.63,362.63c-.53,1.6-1.87,2.31-3.28,3-7.54,3.44-11.19,9.6-11.55,17.61-.31,7.16-.08,14.35-.09,21.52a163.38,163.38,0,0,1-19.47,2.45c-2.36.28-2-1.6-2.05-2.84-.18-4.39,0-8.79-.08-13.18a92,92,0,0,0-.33-11.74c4.4-2,5-3.62,2.86-7.9,2.57-5.23,7.26-7.95,12.21-10.38A47.4,47.4,0,0,0,286,364.07,9.25,9.25,0,0,0,291.63,362.63Z"/><path class="cls-3" d="M173.19,404.18c0-7,.07-13.94,0-20.91-.13-8.55-4.29-14.55-11.95-18.19a2.49,2.49,0,0,1-1.28-1.06,49.87,49.87,0,0,0,20.15-2.88c5.31,2,9.75,5.12,12.49,10.27-2.37,4.18-2.11,5.77,1.32,8.1a4.88,4.88,0,0,1,.91,3.5q0,10.28,0,20.53c0,1.23,0,2.5-1,3.47A130.81,130.81,0,0,1,173.19,404.18Z"/><path class="cls-2" d="M214.53,372.48c5.71-5.43,7.76-12.13,7.7-19.92-.17-24.6-.09-49.21-.08-73.81,0-1.11-.4-2.31.44-3.32,1.33,1.33.95,3,1,4.62,0,12.92,0,25.85.06,38.77,0,1.27-.71,3.49,1.18,3.54,2.21.05,1.51-2.29,1.51-3.64.08-12.73,0-25.46.07-38.19,0-1.58-.4-3.3,1-4.59.75,1,.39,2.22.39,3.33,0,24.58,0,49.15-.22,73.73-.07,7.73,2,14.27,7.86,19.45.36,1.37-.44,2.38-1.1,3.41a33.49,33.49,0,0,0-5.05,17.64c-.1,3.9,0,7.81,0,11.72,0,1.23.14,2.51-.79,3.53-5-.22-10.08.67-15.08-.42,1.54-1.41,3.45-.82,5.2-.87s2.85-.58,2.66-2.47c-.66-6.54,0-13.18-1.44-19.67a30.86,30.86,0,0,0-4.05-9.74C215.13,374.64,214.23,373.78,214.53,372.48Z"/><path class="cls-3" d="M228.44,408.75c.25-7.9-.79-15.83,1.06-23.69,1.1-4.67,3.47-8.63,5.91-12.61a38.61,38.61,0,0,0,17.18,7.12,2.2,2.2,0,0,1,.16,2.2c-2.35,7-2.3,14.29-2.2,21.56,0,1.51.23,3.09-.81,4.42A143,143,0,0,1,228.44,408.75Z"/><path class="cls-3" d="M214.53,372.48a33,33,0,0,1,7,21c0,4.1.29,8.2.54,12.29.11,1.83-.46,2.64-2.41,2.52-2.1-.13-4.21,0-6.32,0a91.25,91.25,0,0,1-13.11-.74c-1.12-1.17-.83-2.66-.88-4.06-.16-4.74.32-9.51-.33-14.24-.51-3.71-1-7.45-4.56-9.72C202.05,379.7,208.56,376.85,214.53,372.48Z"/><path d="M275.13,274c-.64,2-.93.19-1.13-.15-2.65-4.69-5.58-9.09-10.09-12.3-5.77-4.11-12.31-5.82-19.16-7a76.13,76.13,0,0,0-15.39-.82c-8.87.31-17.76-.14-26.62.73-5,.49-10,1-15,1.83-1.81.32-3.33,1.79-5.31,1.27a28.17,28.17,0,0,1,7.33-7c1.77-1.06,3.53.07,5.3.06q32.58-.07,65.16-.07C268.12,256.48,273.28,264.19,275.13,274Z"/><path class="cls-2" d="M249.74,407.75c.14-7.4-.74-14.85,1.12-22.16.51-2,1.15-4,1.73-6l2.19-.16c1.69.32,1.24,1.67,1.25,2.73,0,7.42,0,14.84,0,22.25,0,1-.5,2.41,1.18,2.78C254.8,408.12,252.23,407.45,249.74,407.75Z"/><path class="cls-2" d="M194.48,379.57c3.3.19,4,2.53,4.65,5.22,1.64,6.51.89,13.1,1.08,19.65,0,1.05,0,2.1,0,3.16l-6.41-.59q0-13.74,0-27.5Z"/><path class="cls-4" d="M89,252.24c1,3.81,2,7.63,3.11,11.44a4.25,4.25,0,0,1-1.25,4.66,3.22,3.22,0,0,1-3.77.23,3.68,3.68,0,0,1-1.93-4.38c1-4,2.16-8,3.27-12Z"/><path class="cls-5" d="M172.54,278.88l.6-3.6c.18-.68.73-.48,1.18-.5-.77,7.11-.54,14.25-.62,21.38a9.7,9.7,0,0,1-.53,2.19H172l0-15C170.88,281.7,171.37,280.25,172.54,278.88Z"/><path class="cls-6" d="M319.86,179.82c.5,11-.76,21.64-5.32,31.69-6.87,15.15-19.83,22.19-35.2,25.79-12,2.82-24.24,3.47-36.51,3.75-20.41.48-40.81.65-61.06-2.56-10.06-1.6-19.82-4.23-28.84-9.15-14.56-7.94-22.35-20.44-24.61-36.63a56.42,56.42,0,0,1-.57-12.32c1.28-12.91,8.06-22.65,17.81-30.61,6.61-5.39,14.58-7.14,22.82-7.55,10.73-.53,21.42.51,32.11,1.47,13.64,1.21,27.27,1.7,41,.41,12.57-1.19,25.16-2.52,37.84-1.93,10.1.47,19.26,3.45,26.55,10.73C313.31,160.37,318.84,169,319.86,179.82Z"/><path class="cls-7" d="M319.86,179.82c-1.52-6.23-3.59-12.24-7.3-17.56-6.42-9.22-14.3-16.39-25.89-18.36-8.36-1.42-16.75-1.14-25.14-.53-5,.37-10.06,1-15.1,1.27-8.68.39-17.34,1.6-26,1.15-9.42-.5-18.83-1.23-28.23-2-10.84-.9-21.74-1.81-32.56.42-9.82,2-16.95,8-22.82,15.72a48.67,48.67,0,0,0-9,20.47c-.14-9.46,3.93-17.32,9.38-24.67,8.74-11.77,20.69-16.61,35.05-16.81,12.28-.17,24.48,1,36.71,1.61a275.53,275.53,0,0,0,31.61-.18c13-.86,26-2.08,39-1.36,18.82,1,36.33,16.5,39.85,35.16A18.44,18.44,0,0,1,319.86,179.82Z"/><path class="cls-2" d="M192.57,371.41c-2.52-1.81-3.89-4.75-6.56-6.48-2-1.27-4.31-2-5.93-3.79,10.11-4.57,14.2-12.65,13.81-23.45-.14-4.09,0-8.19.07-12.29,2-1,4-1.67,6.18-.57,0,11.37.06,22.73,0,34.09A13.23,13.23,0,0,1,192.57,371.41Z"/><path class="cls-2" d="M269.85,361.13c-.92,2.09-3.21,2.19-4.82,3.28-2.89,2-4.91,4.75-7.39,7.1-6-3.18-7.68-8.87-7.84-14.93-.27-10.59,0-21.2,0-31.8,2.17-1.19,4.23-1.18,6.14.55,0,5.06,0,10.12.15,15.18C256.28,350.3,261,357.11,269.85,361.13Z"/><path class="cls-8" d="M200.14,324.83l-6.18.57c.08-11.48-.69-23,.49-34.44a23,23,0,0,1,2.45-8.2,7.43,7.43,0,0,1,3.24-3.56Z"/><path class="cls-8" d="M255.93,325.33a23,23,0,0,0-6.14-.55V280.06c1.64.44,2.15,1.82,2.8,3a28.16,28.16,0,0,1,3.31,13.25C256.11,306,255.94,315.65,255.93,325.33Z"/><path class="cls-9" d="M227.38,275.94q-.07,22.51-.13,45c0,1.45.22,2.66-2,2.88s-2.65-.45-2.64-2.52c.07-15.3,0-30.6,0-45.9C224.49,273.33,225.94,273.48,227.38,275.94Z"/><path class="cls-10" d="M123.44,268.73c2.06,0,4.27,2.3,4.14,4-.1,1.33-.85,2.2-2.26,2a4.12,4.12,0,0,1-3.64-3.86A1.75,1.75,0,0,1,123.44,268.73Z"/><path class="cls-11" d="M134.26,282.77c-1.68-.45-3.42-1.3-3.46-3.43,0-1.78,1.53-2,3-1.77,2,.33,3.55,1.37,3.5,3.5C137.23,282.59,135.83,282.92,134.26,282.77Z"/><path class="cls-12" d="M145.46,281.45c2,.15,3.86.67,3.93,2.76.07,1.78-1.59,2.17-3.14,2.09-1.72-.08-3.39-.6-3.57-2.57S144.19,281.63,145.46,281.45Z"/><path class="cls-12" d="M158.92,281.63c1.88.13,3.61.55,3.68,2.37.08,2.11-1.81,2.47-3.49,2.45s-3.29-.35-3.26-2.39S157.68,281.94,158.92,281.63Z"/><path class="cls-13" d="M116.16,259.17c1.62,0,3.51,2.23,3.35,4-.1,1.15-.63,2-2,1.92-1.67-.05-3.45-2.14-3.32-4C114.31,259.92,114.82,259.11,116.16,259.17Z"/><path class="cls-14" d="M109,251.28c1.67.44,3,1.33,3.1,3.23.07,1.08-.76,1.53-1.72,1.46a3.2,3.2,0,0,1-3.13-2.84C107.07,252,107.84,251.39,109,251.28Z"/><path class="cls-14" d="M172.54,278.88c-.18,1.49-.36,3-.55,4.47-1.73.12-3.62-.09-3.48-2.23S170.51,278.42,172.54,278.88Z"/><path class="cls-15" d="M104.66,248.46a1.46,1.46,0,0,1-1.72,1.49,2.62,2.62,0,0,1-2.71-2.1c-.19-1.08.74-1.42,1.69-1.4A2.67,2.67,0,0,1,104.66,248.46Z"/><path class="cls-8" d="M299.27,185.84c-.39,8-2.28,16.14-8.75,22.57-7.62,7.57-18,6.69-24.58-1.87-9.05-11.86-9.11-33,.76-44.4,7.51-8.67,18.41-8.68,26.08,1.42C297.6,169.92,299.1,177.34,299.27,185.84Z"/><path class="cls-8" d="M191.64,184.48c.17,7.92-1.46,15.09-6.16,21.28-8,10.55-19.18,10.64-27.28.15-9.33-12.09-8.45-35.09,2.68-45.3,7.89-7.24,17.29-5.8,23.58,1.72C189.84,168.75,191.92,176.41,191.64,184.48Z"/><path class="cls-16" d="M224.18,231.16a12.12,12.12,0,0,1-11.41-7.24c-.46-1.09-.68-2.06.49-2.74,1.33-.78,2,.22,2.41,1.19a9.05,9.05,0,0,0,16.83-.05c.42-1,1.14-1.93,2.43-1.12s.88,1.71.43,2.77A12.14,12.14,0,0,1,224.18,231.16Z"/><path class="cls-16" d="M224.12,215.44A5.08,5.08,0,1,1,229,210.5,5.15,5.15,0,0,1,224.12,215.44Z"/><path class="cls-17" d="M263.87,184.69c.1-5.72,1.5-11,5.57-15.24,4.72-4.92,11.3-4.73,15.86.37,6.8,7.6,7,22.32.38,30.11-5.11,6-12.5,5.86-17.36-.43C265,195.14,263.79,190.09,263.87,184.69Z"/><path class="cls-17" d="M160.36,185.06c0-5.73,1.36-11,5.32-15.35,4.75-5.18,11.33-5.11,16,0,6.89,7.52,7,22.65.31,30.31-5.11,5.82-12.12,5.71-17-.29C161.58,195.49,160.35,190.47,160.36,185.06Z"/><path class="cls-18" d="M276.37,176.62c-.24,2-1.35,3.29-3.51,3.18s-3.23-1.47-3.14-3.6a3.07,3.07,0,0,1,3.33-3.15C275.11,173.08,276.3,174.39,276.37,176.62Z"/><path class="cls-19" d="M168.14,180.3a4,4,0,0,1-4-3.71,3.84,3.84,0,0,1,7.68-.26A4,4,0,0,1,168.14,180.3Z"/></g></svg>