<svg xmlns="http://www.w3.org/2000/svg" viewBox="0 0 450 450"><defs><style>.cls-1{fill:#4285f4;}.cls-2{fill:#34a853;}.cls-3{fill:#fbbc05;}.cls-4{fill:#ea4335;}</style></defs><title>google-icon</title><g id="google"><g id="google-2" data-name="google"><path class="cls-1" d="M434.05,185.48H229.35v84.18h117c-5.14,27.06-20.55,50-43.67,65.4l70.54,54.73C414.29,351.85,438,296.13,438,229.94A249.69,249.69,0,0,0,434.05,185.48Z"/><path class="cls-2" d="M229.35,356c-56.51,0-104.53-38.13-121.72-89.51h-.25L91.63,278.55,35.32,322.41v.2c35.76,70.93,109.06,119.74,194,119.74,58.68,0,107.88-19.37,143.84-52.56l-70.54-54.73C283.29,348.1,258.59,356,229.35,356Z"/><path class="cls-3" d="M107.38,266.49l.25-.19a126.88,126.88,0,0,1,0-82.6L35.32,127.59a215.11,215.11,0,0,0,0,194.82l56.31-43.86Z"/><path class="cls-4" d="M229.35,94.2c32,0,60.46,11.06,83.18,32.4l62.24-62.24C337,29.19,288,7.65,229.35,7.65c-85,0-158.27,48.81-194,119.94l72.31,56.11C124.82,132.33,172.84,94.2,229.35,94.2Z"/></g></g></svg>