<svg xmlns="http://www.w3.org/2000/svg" viewBox="0 0 450 450"><defs><style>.cls-1{fill:#e84135;}.cls-2{fill:#34a753;}.cls-3{fill:#4284f3;}.cls-4{fill:#f9ba08;}</style></defs><title>google-icon</title><g id="google"><g id="google-2" data-name="google"><path class="cls-1" d="M35.27,127.86A205.22,205.22,0,0,1,84.64,63.4C118.82,33.2,158.66,14.93,204,10c63-6.89,119.21,9.37,167.49,51.21,3.07,2.66,3.6,4.06.37,7.21-18.77,18.34-37.3,36.95-55.9,55.47-1.54,1.54-2.57,3.21-5.18.8-42.71-39.42-112.45-40.94-160-2.76a135.15,135.15,0,0,0-43.3,61.31c-1.84.57-3.09-.62-4.31-1.57Q70.41,156.22,37.55,131A5.37,5.37,0,0,1,35.27,127.86Z"/><path class="cls-2" d="M107.38,266.65c9.48,26.37,25.11,48.23,47.88,64.72,27.47,19.9,58.21,27.05,91.78,23.41a133.5,133.5,0,0,0,56.84-19.66c2-.19,3.21,1.24,4.55,2.27,20.66,15.82,41.16,31.84,61.8,47.68,1.35,1.05,2.88,2,3.47,3.8-14.38,13.93-31,24.61-49.1,32.9-36.76,16.8-75.5,22.53-115.5,18.59-63-6.21-113.93-34.79-152.93-84.59A169.77,169.77,0,0,1,35.3,322.09c.76-2.64,3.19-3.72,5.08-5.18q30.87-23.84,61.74-47.66C103.65,268.07,105,266.21,107.38,266.65Z"/><path class="cls-3" d="M373.7,388.87q-20.59-15.78-41.19-31.57c-9.57-7.36-19.09-14.79-28.63-22.18C322.5,322,336.21,305,343.46,283.22c1.23-3.73,2.07-7.58,3.19-11.34.92-3.09.28-4.16-3.31-4.13-23.48.18-47,.09-70.44.09-13.27,0-26.55-.08-39.82.06-2.87,0-3.68-.8-3.66-3.67q.15-38.06,0-76.13c0-3.32,1.34-3.72,4.13-3.72q98.22.09,196.45-.08c4.38,0,4.55,2.34,5,5.23a264.57,264.57,0,0,1,2.95,46.63c-.88,41.64-10.88,80.66-33.34,116.08A164.69,164.69,0,0,1,373.7,388.87Z"/><path class="cls-4" d="M107.38,266.65,36,321.61c-.23.17-.48.32-.72.48a191.47,191.47,0,0,1-19-54.59C7,219.8,12.77,173.94,34,130.11c.38-.78.87-1.5,1.31-2.25q34.1,26.38,68.21,52.74c1.26,1,2.66,1.75,4,2.61C98.35,211,98.54,238.83,107.38,266.65Z"/></g></g></svg>