<svg xmlns="http://www.w3.org/2000/svg" viewBox="0 0 450 450"><defs><style>.cls-1{fill:#131722;}.cls-2{fill:#666;}.cls-3{fill:#09f;}</style></defs><title>tradingview-icon</title><g id="tradingview"><path class="cls-1" d="M225,443.5A218.5,218.5,0,0,1,70.5,70.5a218.5,218.5,0,1,1,309,309A217.07,217.07,0,0,1,225,443.5Z"/><path class="cls-2" d="M225,8c119.85,0,217,97.15,217,217S344.85,442,225,442,8,344.85,8,225,105.15,8,225,8m0-3a220.06,220.06,0,0,0-85.63,422.71A220.05,220.05,0,0,0,310.63,22.29,218.63,218.63,0,0,0,225,5Z"/><g id="tradingview-2" data-name="tradingview"><polygon class="cls-3" points="82 208.89 138.4 208.89 138.4 297.51 194.79 297.51 194.79 152.49 82 152.49 82 208.89"/><polygon class="cls-3" points="303.55 152.49 243.13 297.51 307.58 297.51 368 152.49 303.55 152.49"/><circle class="cls-3" cx="243.13" cy="184.72" r="32.23" transform="translate(-35.94 60.8) rotate(-13.28)"/></g></g></svg>