<svg width="829" height="542" fill="none" xmlns="http://www.w3.org/2000/svg"><g opacity=".2" fill="#CECECE"><path d="M616.61 228.817a1.746 1.746 0 00-.072-.006.33.33 0 01-.216-.176l-27.585-49.747a.342.342 0 01.033-.4.384.384 0 01.384-.127l75.903 22.044c.14.04.231.163.262.309a.373.373 0 01-.173.36l-48.317 27.703a.414.414 0 01-.219.04zm-26.828-49.512l26.984 48.661 47.274-27.097-74.258-21.564z"/><path d="M632.078 259.583c-.128-.011-.238-.077-.286-.196l-15.468-30.767a.37.37 0 01.047-.399.35.35 0 01.382-.098l73.504 24.97a.37.37 0 01.242.38.352.352 0 01-.328.318l-58.035 5.797-.058-.005zm-14.727-30.504l14.961 29.76 56.149-5.605-71.11-24.155z"/><path d="M598.908 301.074a.393.393 0 01-.3-.197c-.063-.121-.035-.277.045-.385l33.171-41.491a.364.364 0 01.494-.06l54.186 41.218a.378.378 0 01.126.398.385.385 0 01-.337.246l-87.356.273-.029-.002zm33.26-41.354l-32.482 40.641 85.544-.278-53.062-40.363z"/><path d="M686.265 300.801a.425.425 0 01-.209-.089.372.372 0 01-.119-.298l3.849-47.014a.374.374 0 01.166-.274.358.358 0 01.319-.032l74.307 29.756a.352.352 0 01.229.364.352.352 0 01-.285.322l-78.157 17.273c-.028-.017-.072-.006-.1-.008zm4.196-46.856l-3.77 46.042 76.545-16.916-72.775-29.126z"/><path d="M676.935 340.229c-.043-.003-.084-.021-.126-.039l-78.027-39.155a.34.34 0 01-.183-.404.365.365 0 01.353-.273l87.357-.273a.296.296 0 01.276.138c.065.091.1.195.062.307l-9.33 39.428a.367.367 0 01-.193.243.434.434 0 01-.189.028zm-76.487-39.158l76.271 38.277 9.128-38.538-85.399.261zM806.227 263.294a.432.432 0 01-.222-.091l-30.281-28.597a.355.355 0 01-.066-.437.387.387 0 01.417-.168l51.989 15.683c.14.04.231.163.249.294a.34.34 0 01-.172.345l-21.708 12.915a.342.342 0 01-.206.056zm-28.904-28.183l28.986 27.369 20.769-12.359-49.755-15.01z"/><path d="M764.422 283.528a.246.246 0 01-.099-.022l-74.307-29.756a.354.354 0 01-.229-.364.354.354 0 01.286-.322l85.832-19.091a.38.38 0 01.337.1.323.323 0 01.087.338l-11.511 48.848c-.022.098-.088.194-.177.23a.403.403 0 01-.219.039zm-73.064-29.999l72.845 29.161 11.288-47.887-84.133 18.726z"/><path d="M690.114 253.787a.394.394 0 01-.3-.198l-25.188-52.672a.374.374 0 01.046-.385.35.35 0 01.369-.114L713.076 215a.349.349 0 01.227.22.4.4 0 01-.026.314l-22.848 38.091c-.051.097-.171.159-.315.162zm-24.485-52.457l24.548 51.339 22.278-37.116-46.826-14.223z"/><path d="M764.422 283.528a.39.39 0 01-.262-.136l-51.46-67.833a.37.37 0 01-.009-.418.368.368 0 01.4-.14L776.061 234a.353.353 0 01.239.423l-11.512 48.848c-.026.141-.134.233-.28.264l-.086-.007zm-50.477-67.536l50.329 66.359 11.265-47.775-61.594-18.584zM598.908 301.074a.353.353 0 01-.274-.166l-46.38-77.505a.365.365 0 01.034-.414.339.339 0 01.41-.096l32.113 13.436c.112.038.19.145.21.248l14.281 64.083c.043.176-.057.341-.221.414-.057-.005-.116.005-.173 0zm-45.491-77.115l44.685 74.66-13.755-61.723-30.93-12.937z"/><path d="M632.078 259.583c-.042-.004-.085-.007-.126-.039l-47.438-22.577a.36.36 0 01-.2-.362.34.34 0 01.27-.309l31.969-8.189c.162-.045.327.041.416.192l15.469 30.767a.346.346 0 01-.063.412.407.407 0 01-.297.105zm-46.366-22.835l45.61 21.708-14.875-29.581-30.735 7.873zM530.76 251.288c-.1-.009-.211-.061-.261-.151l-17.449-25.043a.36.36 0 01-.028-.362.396.396 0 01.305-.206l39.202-2.676c.146-.016.268.066.345.187a.376.376 0 01-.032.386l-21.768 27.718a.329.329 0 01-.299.133c-.001.015-.001.015-.015.014zm-16.754-25.087l16.804 24.126 20.965-26.704-37.769 2.578z"/><path d="M555.907 279.494c-.086-.007-.183-.044-.235-.12l-25.147-28.206c-.092-.109-.122-.269-.054-.393a.375.375 0 01.347-.202l101.319 8.295a.369.369 0 01.333.33.367.367 0 01-.262.381l-76.171 19.911c-.059.009-.087.007-.13.004zm-24.247-28.133l24.395 27.382 73.922-19.332-98.317-8.05zM732.007 304.546l-45.742-3.745a.344.344 0 01-.298-.226.382.382 0 01.059-.369l50.752-57.449c.096-.122.271-.151.411-.096a.357.357 0 01.215.363l-5.011 61.194c-.016.2-.2.343-.386.328zm-44.969-4.401l44.67 3.657 4.893-59.765-49.563 56.108z"/><path d="M806.227 263.294a1.566 1.566 0 00-.071-.006l-69.211-19.942a.356.356 0 01-.256-.381l1.63-19.912c.011-.129.077-.238.196-.286.119-.048.235-.053.345.014l67.58 39.854a.36.36 0 01.15.444.389.389 0 01-.363.215zm-68.799-20.57l66.216 19.077-64.657-38.118-1.559 19.041z"/><path d="M806.227 263.294a1.566 1.566 0 00-.071-.006l-69.211-19.942a.36.36 0 01-.254-.409c.03-.185.198-.301.385-.3l90.917 7.027a.357.357 0 01.323.271c.032.146-.025.314-.161.39l-21.707 12.915a.437.437 0 01-.221.054zm-65.707-19.67l65.683 18.919 20.603-12.257-86.286-6.662zM690.114 253.787l-.029-.003-105.473-16.78a.366.366 0 01-.302-.356c0-.173.127-.32.302-.349l128.336-21.309a.37.37 0 01.348.143.382.382 0 01.011.39l-22.848 38.091a.415.415 0 01-.345.173zM586.902 236.63l103.058 16.396 22.33-37.213-125.388 20.817z"/><path d="M732.007 304.546a.263.263 0 01-.113-.024l-99.929-44.963a.342.342 0 01-.204-.319.364.364 0 01.186-.33l80.883-43.887a.41.41 0 01.318-.017.377.377 0 01.195.246l19.031 88.849a.339.339 0 01-.129.35.301.301 0 01-.238.095zm-99.09-45.355l98.61 44.366-18.781-87.692-79.829 43.326z"/><path d="M737.017 243.352l-.057-.005-59.496-15.908a.372.372 0 01-.229-.192l-12.594-26.329c-.074-.15-.033-.305.077-.425a.383.383 0 01.422-.052l72.091 42.238a.353.353 0 01.15.444.381.381 0 01-.364.229zm-59.212-16.562l56.764 15.181-68.782-40.297 12.018 25.116z"/><path d="M616.61 228.817a.393.393 0 01-.236-.106.363.363 0 01-.092-.281l3.337-40.768a.396.396 0 01.198-.3.395.395 0 01.357.029l57.573 39.394a.366.366 0 01.14.4.349.349 0 01-.338.26l-60.911 1.374-.028-.002zm3.674-40.482l-3.255 39.753 59.397-1.339-56.142-38.414zM513.326 226.246l-.043-.004-58.159-11.683a.373.373 0 01-.256-.208.339.339 0 01.027-.329l15.66-24.304a.38.38 0 01.244-.167.347.347 0 01.282.081l42.497 35.987c.121.11.164.287.095.425a.355.355 0 01-.347.202zm-57.549-12.281l56.276 11.299-41.111-34.823-15.165 23.524zM552.528 223.57a.231.231 0 01-.099-.023.394.394 0 01-.212-.218l-15.507-48.758a.361.361 0 01.148-.405.345.345 0 01.429.035l39.385 35.344a.4.4 0 01.118.312.331.331 0 01-.18.273l-23.878 13.413a.503.503 0 01-.204.027zm-14.736-47.975l14.967 47.087 23.063-12.948-38.03-34.139z"/><path d="M616.61 228.817c-.043-.004-.086-.007-.127-.04l-40.203-18.66a.343.343 0 01-.205-.319.378.378 0 01.2-.329l43.542-22.107a.354.354 0 01.518.344l-3.338 40.768a.372.372 0 01-.181.287.345.345 0 01-.206.056zm-39.353-19.037l39.067 18.135 3.243-39.609-42.31 21.474zM635.206 319.285a.387.387 0 01-.168-.057.369.369 0 01-.164-.287l-3.127-59.702a.351.351 0 01.185-.33.375.375 0 01.386.032l54.186 41.218a.34.34 0 01.131.341.378.378 0 01-.225.284l-51.059 18.484a.483.483 0 01-.145.017zm-2.699-59.307l3.057 58.444 49.991-18.096-53.048-40.348zM503.574 253.249a.392.392 0 01-.262-.136.313.313 0 01-.045-.335l9.751-26.989a.355.355 0 01.292-.235.372.372 0 01.348.143l17.449 25.043a.36.36 0 01.028.362.396.396 0 01-.305.206l-27.185 1.961c-.041-.032-.056-.019-.071-.02zm9.876-26.59l-9.324 25.83 26.012-1.871-16.688-23.959z"/><path d="M619.948 188.049l-.029-.002-82.926-13.237a.353.353 0 01-.299-.398c.015-.186.2-.329.386-.314l52.003 4.258 30.994 8.998a.364.364 0 01.253.424.37.37 0 01-.382.271zm-73.621-12.475l68.011 10.864-25.385-7.374-42.626-3.49z"/><path d="M513.326 226.246a.435.435 0 01-.209-.089l-42.498-35.987a.33.33 0 01-.115-.355.357.357 0 01.267-.266l66.193-15.446a.393.393 0 01.365.116.328.328 0 01.041.377l-23.71 51.432a.376.376 0 01-.246.196c-.017.028-.06.024-.088.022zm-41.693-36.152l41.582 35.222 23.203-50.337-64.785 15.115z"/><path d="M530.76 251.288a.35.35 0 01-.195-.088.348.348 0 01-.133-.299l6.261-76.475c.012-.143.109-.279.256-.31a.354.354 0 01.392.133l47.605 62.192a.352.352 0 01.059.336.33.33 0 01-.249.224l-53.866 14.283c-.044.011-.087.007-.13.004zm6.572-75.875l-6.145 75.046 52.867-14.019-46.722-61.027z"/><path d="M589.024 179.07l-52.003-4.258a.422.422 0 01-.182-.058l-30.708-21.451c-.15-.099-.192-.29-.121-.456a.352.352 0 01.432-.181l82.711 25.71c.168.057.283.239.24.408a.344.344 0 01-.369.286zm-51.844-4.964l48.658 3.984-77.406-24.067 28.748 20.083zM503.574 253.249c-.043-.003-.084-.021-.126-.039l-82.672-41.478c-.152-.07-.224-.249-.182-.418a.356.356 0 01.381-.256l34.264 2.805a.326.326 0 01.195.074l48.409 38.672a.346.346 0 01.077.467c-.097.122-.217.184-.346.173zm-80.841-41.342l77.972 39.121-45.652-36.475-32.32-2.646z"/><path d="M503.574 253.249l-.071-.006a.297.297 0 01-.216-.176l-32.746-62.99c-.076-.136-.048-.292.048-.413.109-.107.257-.152.396-.098l81.7 33.312a.356.356 0 01.22.305c.004.13-.051.27-.171.332l-48.954 29.679a.34.34 0 01-.206.055zm-31.954-62.652l32.113 61.773 48.014-29.109-80.127-32.664z"/><path d="M470.828 190.259a.526.526 0 01-.141-.041l-46.146-24.644a.359.359 0 01-.185-.375.35.35 0 01.311-.291l34.849-4.342a.35.35 0 01.384.233l11.297 28.986a.348.348 0 01-.089.396.494.494 0 01-.28.078zm-44.955-24.791l44.299 23.658-10.845-27.827-33.454 4.169z"/><path d="M496.111 171.463a1.746 1.746 0 00-.072-.006l-36.58-10.19a.342.342 0 01-.258-.367.37.37 0 01.301-.335l46.783-7.912a.374.374 0 01.348.144.358.358 0 01.027.376l-10.203 18.102a.362.362 0 01-.346.188zm-34.904-10.456l34.766 9.682 9.697-17.208-44.463 7.526z"/><path d="M513.326 226.246a.435.435 0 01-.209-.089l-42.498-35.987a.326.326 0 01-.12-.284.358.358 0 01.152-.275l25.283-18.796a.41.41 0 01.321-.06.335.335 0 01.225.234l17.215 54.783a.359.359 0 01-.148.405.34.34 0 01-.221.069zm-41.895-36.326l41.205 34.902-16.688-53.128-24.517 18.226z"/><path d="M537.021 174.812l-40.91-3.349a.36.36 0 01-.331-.358.364.364 0 01.318-.363l51.558-5.247a.357.357 0 01.371.217.348.348 0 01-.106.409l-10.647 8.597c-.065.081-.153.103-.253.094zm-36.964-3.745l36.88 3.019 9.599-7.747-46.479 4.728zM584.641 237.006a.307.307 0 01-.114-.024l-32.112-13.436c-.112-.038-.177-.129-.21-.247a.397.397 0 01.068-.311l36.497-44.5a.36.36 0 01.412-.11c.139.055.228.206.229.364l-4.383 57.922a.353.353 0 01-.166.274.345.345 0 01-.221.068zm-31.511-13.934l31.209 13.046 4.265-56.305-35.474 43.259zM455.167 214.562c-.028-.002-.057-.004-.07-.02l-72.165-21.824a.353.353 0 01-.249-.294.353.353 0 01.158-.347l41.68-27.137a.358.358 0 01.277-.05.34.34 0 01.232.163l30.485 48.948a.367.367 0 01-.019.416.395.395 0 01-.329.145zm-71.291-22.299l70.509 21.314-29.801-47.826-40.708 26.512z"/><path d="M424.682 165.615c-.029-.003-.072-.006-.099-.023l-64.257-24.199a.346.346 0 01-.226-.407.37.37 0 01.383-.285l40.739 3.336a.385.385 0 01.209.089l23.518 20.863a.337.337 0 01.063.451.344.344 0 01-.33.175zm-61.713-23.991l60.041 22.616-21.975-19.499-38.066-3.117z"/><path d="M459.53 161.273l-.071-.006-58.367-16.521a.342.342 0 01-.258-.367.368.368 0 01.315-.334l52.853-7.17a.355.355 0 01.394.277l5.515 23.691a.339.339 0 01-.1.338.395.395 0 01-.281.092zm-56.578-16.749l56.13 15.892-5.301-22.782-50.829 6.89z"/><path d="M537.021 174.812l-40.91-3.349a.46.46 0 01-.196-.074l-42.095-33.882a.359.359 0 01-.076-.466.37.37 0 01.457-.136l83.005 37.232c.167.071.239.25.196.419a.37.37 0 01-.381.256zm-40.738-4.054l38.724 3.17-78.564-35.227 39.84 32.057zM383.002 192.753a.35.35 0 01-.195-.088l-65.46-54.848a.34.34 0 01-.096-.411.359.359 0 01.363-.215l42.883 3.511a.359.359 0 01.3.212l22.577 51.337c.074.149.016.332-.108.437a.61.61 0 01-.264.065zm-64.331-54.756l63.414 53.126-21.875-49.725-41.539-3.401z"/><path d="M455.167 214.562c-.028-.002-.057-.004-.07-.02l-72.165-21.824a.371.371 0 01-.255-.395.38.38 0 01.343-.317l87.826-2.494a.342.342 0 01.316.184.353.353 0 01-.016.373l-15.661 24.303a.304.304 0 01-.318.19zm-69.914-21.884l69.792 21.097 15.149-23.511-84.941 2.414zM320.742 160.328a.418.418 0 01-.126-.039l-46.73-22.26c-.153-.07-.226-.234-.198-.405a.352.352 0 01.354-.273l43.529-.163c.2.016.335.128.364.303l3.201 22.423a.35.35 0 01-.143.334.337.337 0 01-.251.08zm-45.117-22.272l44.707 21.303-3.065-21.448-41.642.145z"/><path d="M320.742 160.328a.354.354 0 01-.322-.285.388.388 0 01.191-.402l39.683-18.912a.362.362 0 01.274-.006l64.257 24.198a.347.347 0 01.225.407c-.042.169-.197.301-.368.287l-103.94-5.287zm39.723-18.88l-38.26 18.237 100.228 5.098-61.968-23.335zM346.132 113.854a.27.27 0 01-.113-.024l-61.241-27.29a.37.37 0 01-.193-.447.373.373 0 01.435-.224l74.753 22.554c.155.042.244.179.26.338a.346.346 0 01-.244.34l-13.511 4.736c-.044.011-.088.022-.146.017zm-55.877-25.657l55.924 24.913 12.341-4.329-68.265-20.584z"/><path d="M360.425 141.416a.355.355 0 01-.287-.196l-14.292-27.562a.375.375 0 01.032-.386.35.35 0 01.37-.128l56.358 14.688a.382.382 0 01.275.339.36.36 0 01-.259.353l-42.066 12.874a.431.431 0 01-.131.018zm-13.574-27.374l13.782 26.585 40.576-12.421-54.358-14.164z"/><path d="M401.164 144.751a.352.352 0 01-.222-.104.355.355 0 01-.107-.282l1.328-16.21a.335.335 0 01.135-.248.315.315 0 01.279-.063l51.525 9.039c.17.028.302.183.302.356 0 .172-.142.319-.317.348l-52.852 7.17-.071-.006zm1.682-16.152l-1.258 15.367 50.117-6.805-48.859-8.562z"/><path d="M454.016 137.581l-.029-.002-51.525-9.04c-.028-.002-.056-.019-.084-.021l-42.847-19.424a.37.37 0 01-.194-.447.376.376 0 01.436-.224l94.372 28.463a.354.354 0 01.239.423c-.029.17-.197.286-.368.272zm-51.395-9.748l45.553 7.989-83.447-25.165 37.894 17.176zM320.742 160.328l-.029-.002a.354.354 0 01-.292-.298l-3.2-22.423a.353.353 0 01.127-.32l28.591-24.051a.368.368 0 01.461-.006.365.365 0 01.092.454l-25.391 46.474a.415.415 0 01-.359.172zm-2.795-22.635l3.017 21.156 23.953-43.857-26.97 22.701z"/><path d="M317.541 137.905a.391.391 0 01-.168-.057l-63.416-42.722a.402.402 0 01-.158-.358.343.343 0 01.253-.282l30.767-8.619a.36.36 0 01.405.148l32.65 51.342c.09.136.073.336-.051.441a.353.353 0 01-.282.107zm-62.55-42.939l61.344 41.329-31.593-49.657-29.751 8.328z"/><path d="M274.012 138.068a.373.373 0 01-.299-.212l-19.889-42.87a.35.35 0 01.045-.37.364.364 0 01.356-.13l92.008 18.671a.366.366 0 01.29.326.359.359 0 01-.247.369l-72.12 24.213c-.043-.003-.087.008-.144.003zm-19.237-42.746l19.461 41.944 70.537-23.681-89.998-18.262z"/><path d="M188.383 95.096a.337.337 0 01-.235-.12.358.358 0 01-.093-.267l2.216-27.073a.354.354 0 01.167-.275.34.34 0 01.332-.016l63.525 27.161c.153.07.24.236.212.406a.354.354 0 01-.355.287l-65.742-.087c.001-.014-.013-.015-.027-.016zm2.562-26.901l-2.144 26.187 63.598.084-61.454-26.271z"/><path d="M274.012 138.068a.418.418 0 01-.126-.039l-85.631-42.958a.375.375 0 01-.201-.347l2.217-27.088a.358.358 0 01.212-.3.352.352 0 01.369.06l83.413 70.045a.36.36 0 01.077.467.357.357 0 01-.33.16zm-85.223-43.543l82.687 41.479L190.93 68.38l-2.141 26.145z"/><path d="M190.6 68.022l-.058-.005-38.977-9.911a.358.358 0 01-.271-.382l.939-11.464a.353.353 0 01.196-.286c.106-.063.234-.053.345 0l38.04 21.36a.354.354 0 01.151.445.35.35 0 01-.365.243zm-38.552-10.539l36.045 9.168-35.178-19.76-.867 10.593z"/><path d="M254.125 95.183a.32.32 0 01-.114-.024L190.486 68a.361.361 0 01.172-.691l45.013 3.685c.1.008.197.06.248.135l18.512 23.476c.105.123.104.31.007.446a.375.375 0 01-.313.133zm-61.324-26.98l60.202 25.737-17.548-22.245-42.654-3.492z"/><path d="M284.892 86.564l-.043-.004-94.278-18.54c-.184-.044-.314-.213-.284-.397a.372.372 0 01.385-.314l45.013 3.685c.029.002.058.005.071.02l49.279 14.857c.182.058.297.24.237.436a.367.367 0 01-.38.257zm-87.946-18.022l80.922 15.921-42.284-12.758-38.638-3.163zM188.383 95.096a.41.41 0 01-.126-.04l-80.917-40.6c-.152-.07-.224-.248-.181-.418.042-.169.209-.27.381-.256l44.155 3.615a.327.327 0 01.222.105l36.76 36.985c.12.125.147.314.034.463a.358.358 0 01-.328.146zm-79.058-40.448l77.295 38.778-35.112-35.325-42.183-3.453z"/><path d="M107.483 54.497c-.043-.004-.085-.022-.127-.04L.206.688A.38.38 0 01.028.225a.356.356 0 01.434-.21l62.844 18.96c.042.018.083.036.124.068l44.321 34.813a.346.346 0 01.077.467c-.097.121-.217.183-.345.173zM4.22 1.922l100.254 50.3L63.02 19.657 4.22 1.922z"/><path d="M107.481 54.497a.33.33 0 01-.196-.074l-44.32-34.812a.358.358 0 01-.093-.454.376.376 0 01.418-.182l89.415 26.964c.155.041.257.194.258.366a.37.37 0 01-.301.336l-45.094 7.848c-.03.012-.058.01-.087.008zM64.9 20.23l42.698 33.542 43.443-7.552L64.9 20.23z"/><path d="M63.162 19.684l-29.947-2.452c-.043-.003-.085-.02-.126-.039L.206.686a.38.38 0 01-.178-.46.356.356 0 01.434-.21l62.844 18.96a.36.36 0 01.254.41.372.372 0 01-.398.298zm-29.817-3.16l26.516 2.17L4.234 1.924l29.11 14.6z"/><path d="M29.186 41.467a.353.353 0 01-.261-.15L.068.588A.349.349 0 01.106.132.372.372 0 01.569.098l29.63 21.608a.345.345 0 01.148.3l-.774 19.119a.359.359 0 01-.256.324.418.418 0 01-.131.018zM1.913 1.963L28.9 40.033l.715-17.871L1.913 1.963z"/><path d="M69.21 95.714a.353.353 0 01-.261-.151L28.925 41.316a.367.367 0 01.023-.459c.11-.12.3-.148.451-.064l46.68 28.156a.356.356 0 01.153.401l-6.656 26.106a.377.377 0 01-.28.265c-.028-.017-.058-.005-.086-.007zM30.567 42.342l38.509 52.195 6.401-25.105-44.91-27.09z"/><path d="M75.866 69.608a.325.325 0 01-.222-.104L29.74 22.229c-.134-.126-.13-.342-.018-.476a.378.378 0 01.48-.062l70.106 48.537c.136.097.181.26.139.414a.354.354 0 01-.365.244l-24.215-1.278zM32.802 24.365L76.054 68.89l22.798 1.19-66.05-45.715zM96.222 117.669a.328.328 0 01-.196-.074L69 95.639a.368.368 0 01-.11-.412.37.37 0 01.364-.23l33.32 2.729c.115.01.21.075.275.166a.387.387 0 01.047.306l-6.295 19.228a.39.39 0 01-.235.24c-.059.01-.102.006-.144.003zM70.354 95.807l25.716 20.9 5.989-18.304-31.706-2.596z"/><path d="M96.222 117.669a.358.358 0 01-.3-.212l-20.355-48.06a.33.33 0 01.042-.342.35.35 0 01.314-.147l24.186 1.275c.087-.008.184.044.25.12a.362.362 0 01.093.268l-3.83 46.785a.342.342 0 01-.3.321 3.886 3.886 0 00-.1-.008zM76.439 69.641l19.574 46.183 3.682-44.97-23.256-1.213zM136.135 141.99a.34.34 0 01-.248-.136l-33.605-43.547a.371.371 0 01-.023-.42c.082-.123.246-.195.387-.155l59.321 15.232c.127.039.221.119.253.251a.367.367 0 01-.071.34l-25.718 28.329c-.064.081-.168.116-.283.121l-.013-.015zm-32.661-43.298l32.707 42.38 25.022-27.566-57.729-14.814z"/><path d="M136.135 141.99c-.129-.011-.239-.077-.286-.196L99.766 70.687a.368.368 0 01.08-.44c.123-.104.311-.118.433-.022l85.468 59.177a.358.358 0 01-.124.638l-49.4 11.928c-.017.028-.06.024-.088.022zm-35.093-70.364l35.314 69.59 48.343-11.669-83.657-57.92z"/><path d="M126.918 170.375a.375.375 0 01-.288-.182l-30.696-52.706a.349.349 0 01.065-.441.354.354 0 01.436-.05l39.913 24.32a.357.357 0 01.153.416l-9.217 28.385a.352.352 0 01-.308.249c-.015.013-.044.01-.058.009zm-29.645-52.016l29.573 50.787 8.874-27.363-38.447-23.424z"/><path d="M201.449 199.502a.231.231 0 01-.099-.023l-74.531-29.126a.36.36 0 01-.227-.393c.028-.17.182-.287.341-.303l82.795-1.496a.326.326 0 01.29.139c.065.092.098.21.062.308l-8.264 30.622a.327.327 0 01-.191.229c-.047.039-.105.049-.176.043zm-72.688-29.148l72.483 28.311 8.036-29.778-80.519 1.467z"/><path d="M201.449 199.502a.393.393 0 01-.209-.089l-65.328-57.514a.336.336 0 01-.064-.451.358.358 0 01.43-.152l149.397 57.317c.168.057.255.236.226.407a.353.353 0 01-.354.287l-84.07.197-.028-.002zm-63.558-56.822l63.717 56.101 82.012-.193-145.729-55.908z"/><path d="M154.063 210.732a.289.289 0 01-.181-.073c-.122-.096-.179-.273-.11-.411l31.471-80.671a.34.34 0 01.306-.22.329.329 0 01.331.171l24.192 38.82c.103.152.057.364-.082.482l-55.664 41.851a.695.695 0 01-.263.051zm31.565-80.232l-30.745 78.831 54.39-40.89-23.645-37.941z"/><path d="M202.492 272.531a.358.358 0 01-.248-.135l-48.429-61.8a.347.347 0 01-.059-.335.332.332 0 01.249-.225l47.4-11.229a.371.371 0 01.296.068.381.381 0 01.137.27l1.028 73.028a.346.346 0 01-.243.34.333.333 0 01-.131.018zm-47.785-61.934l47.425 60.523-1.008-71.515-46.417 10.992z"/><path d="M154.063 210.732a.35.35 0 01-.261-.151l-40.029-54.722a.368.368 0 01-.063-.279.33.33 0 01.163-.231l22.1-14.02a.358.358 0 01.319-.032.311.311 0 01.21.248l17.929 68.742a.369.369 0 01-.193.416.376.376 0 01-.175.029zm-39.489-54.981l38.682 52.886-17.325-66.448-21.357 13.562zM289.113 300.576c-.029-.003-.057-.005-.085-.022l-86.621-28.044a.363.363 0 01-.24-.408.369.369 0 01.37-.301l76.85 2.392a.387.387 0 01.326.229l9.771 25.666a.35.35 0 01-.074.368.353.353 0 01-.297.12zm-84.081-27.966l83.509 27.041-9.429-24.746-74.08-2.295z"/><path d="M289.113 300.576a.327.327 0 01-.222-.105.338.338 0 01-.09-.309l12.294-68.067a.355.355 0 01.644-.134l43.208 60.177a.378.378 0 01.043.349.395.395 0 01-.277.222l-55.501 7.889c-.042-.018-.071-.02-.099-.022zm12.523-67.53l-12.056 66.748 54.424-7.733-42.368-59.015z"/><path d="M279.342 274.909c-.043-.003-.084-.021-.14-.04l-125.279-64.177c-.152-.085-.238-.264-.181-.432.057-.169.196-.287.394-.242l147.343 21.778c.114.009.208.089.272.194a.38.38 0 01.001.332l-22.063 42.4a.354.354 0 01-.347.187zm-123.161-63.86l123.028 63.029 21.67-41.641-144.698-21.388z"/><path d="M279.342 274.909a.333.333 0 01-.274-.166l-69.616-106.029a.366.366 0 01.021-.429.361.361 0 01.412-.111l75.806 30.426a.37.37 0 01.229.364l-6.191 75.617a.37.37 0 01-.271.323.336.336 0 01-.116.005zm-68.669-105.634l68.425 104.219 6.085-74.317-74.51-29.902zM355.651 371.254c-.043-.003-.084-.021-.126-.039a.355.355 0 01-.193-.275l-11.037-78.567a.35.35 0 01.158-.347.345.345 0 01.388.003l70.643 44.623c.11.067.172.187.161.315a.38.38 0 01-.183.302l-59.607 33.959a.456.456 0 01-.204.026zm-10.548-78.211l10.854 77.287 58.626-33.392-69.48-43.895z"/><path d="M355.651 371.254a.391.391 0 01-.236-.105l-66.538-70.679a.338.338 0 01-.071-.366.382.382 0 01.293-.235l100.335-12.737a.35.35 0 01.334.143.342.342 0 01.043.349l-33.798 83.43a.41.41 0 01-.263.223c-.027-.017-.056-.019-.099-.023zm-65.768-70.774l65.679 69.76 33.349-82.345-99.028 12.585z"/><path d="M415.257 337.31a.339.339 0 01-.286-.196l-25.809-49.472a.367.367 0 01.064-.426.376.376 0 01.422-.066l92.982 50.711c.152.085.225.249.169.403a.38.38 0 01-.353.273l-67.173-1.24c-.001.014-.016.013-.016.013zm-24.916-48.952l25.162 48.238 65.492 1.204-90.654-49.442z"/><path d="M389.448 287.838l-110.121-12.916c-.172-.014-.303-.168-.317-.342a.35.35 0 01.274-.366l86.702-19.869a.373.373 0 01.377.146l23.405 32.784c.076.121.093.266.011.389a.35.35 0 01-.331.174zm-107.98-13.402l107.242 12.579-22.799-31.928-84.443 19.349z"/><path d="M366.043 255.055a.187.187 0 01-.085-.021l-64.636-22.546a.368.368 0 01-.201-.189l-15.874-33.203a.347.347 0 01.093-.424.346.346 0 01.433-.022l80.511 55.748a.37.37 0 01.121.456.386.386 0 01-.362.201zm-64.353-23.199l62.007 21.626L286.454 200l15.236 31.856zM375.183 462.073l-.029-.002a.37.37 0 01-.293-.283l-19.532-90.819a.37.37 0 01.176-.389.343.343 0 01.413.049l48.555 44.268a.337.337 0 01.064.451l-29.038 46.549c-.053.126-.188.187-.316.176zm-18.91-90.149l19.102 88.855 28.409-45.55-47.511-43.305z"/><path d="M404.22 415.524a.327.327 0 01-.222-.105.38.38 0 01-.105-.296l11.039-78.228c.025-.128.107-.251.239-.283a.352.352 0 01.367.088l70.38 68.575c.093.094.138.242.085.367a.338.338 0 01-.293.235l-81.417 9.638a.162.162 0 01-.073.009zm11.323-77.831l-10.886 77.061 80.212-9.493-69.326-67.568zM374.582 509.655a.38.38 0 01-.329-.372l.6-47.582a.382.382 0 01.123-.264.468.468 0 01.281-.092l67.539 8.71a.353.353 0 01.134.659l-68.141 38.872c-.063.067-.135.075-.207.069zm.984-47.522l-.587 46.548 66.661-38.03-66.074-8.518z"/><path d="M442.723 470.783a.353.353 0 01-.262-.151l-38.516-55.26a.335.335 0 01-.029-.348.37.37 0 01.29-.207l81.418-9.638a.35.35 0 01.345.173c.077.121.065.264-.003.388l-42.915 64.897a.37.37 0 01-.301.163c.001-.015-.013-.016-.027-.017zm-37.85-55.321l37.873 54.33 42.193-63.805-80.066 9.475zM374.451 509.846c-.771-.063-3.706-2.534-26.089-33.924-12.055-16.917-23.986-34.126-24.115-34.309a.344.344 0 01.021-.43.367.367 0 01.412-.11l50.676 20.295a.37.37 0 01.231.335l-.6 47.583c-.003.388-.271.496-.345.518a.284.284 0 01-.191.042zm-48.943-67.641c18.147 26.18 45.088 64.117 48.74 66.79l.599-47.036-49.339-19.754z"/><path d="M324.507 441.778a.296.296 0 01-.154-.056c-.096-.051-.145-.156-.165-.258l-10.313-73.184a.374.374 0 01.144-.348.386.386 0 01.376-.027l90.011 46.929a.364.364 0 01.188.346.361.361 0 01-.242.311l-79.698 26.256c-.047.039-.09.036-.147.031zm-9.817-72.899l10.144 72.077 78.485-25.851-88.629-46.226z"/><path d="M314.209 368.595a.334.334 0 01-.235-.12.36.36 0 01-.069-.38l30.405-75.908a.352.352 0 01.219-.212.319.319 0 01.299.038l70.643 44.624a.328.328 0 01.159.344c-.012.143-.121.249-.255.295l-101.048 31.286a.162.162 0 01-.118.033zm30.607-75.734l-29.97 74.808 99.587-30.83-69.617-43.978z"/><path d="M314.209 368.595c-.043-.003-.086-.007-.126-.039l-67.393-32.125a.378.378 0 01-.207-.276.358.358 0 01.127-.321l42.296-35.894a.332.332 0 01.323-.074.335.335 0 01.24.221l25.097 68.019a.377.377 0 01-.09.396.359.359 0 01-.267.093zm-66.708-32.573l66.09 31.515-24.614-66.713-41.476 35.198zM442.723 470.783a.387.387 0 01-.236-.106.35.35 0 01-.036-.449l42.916-64.897a.354.354 0 01.329-.16l61.952 5.072a.354.354 0 01.322.286.36.36 0 01-.176.388l-104.867 59.825a.46.46 0 01-.204.041zm43.129-64.88l-41.963 63.464 102.543-58.504-60.58-4.96z"/><path d="M485.638 405.886a.329.329 0 01-.196-.074.352.352 0 01-.137-.256l-3.206-67.35a.365.365 0 01.185-.33.353.353 0 01.373.016l82.602 54.28a.37.37 0 01.157.373.352.352 0 01-.297.278l-79.394 13.055a.187.187 0 01-.087.008zm-2.788-67.014l3.153 66.238 78.083-12.847-81.236-53.391zM246.817 336.47a.35.35 0 01-.261-.151l-44.325-63.939a.509.509 0 01-.07-.207l-.573-40.8c0-.173.112-.322.287-.35a.342.342 0 01.401.205l44.912 104.754c.073.164-.001.36-.153.463-.073.008-.147.031-.218.025zm-43.941-64.411l42.24 60.933-42.798-99.818.558 38.885z"/><path d="M246.817 336.47a.329.329 0 01-.196-.074.36.36 0 01-.092-.453l32.526-61.561a.358.358 0 01.332-.189c.142.012.25.107.312.227l9.77 25.667a.325.325 0 01-.104.394l-42.296 35.894a.327.327 0 01-.252.095zm32.497-61.045l-31.282 59.202 40.688-34.53-9.406-24.672zM496.335 440.967a.353.353 0 01-.261-.151c-.102-.152-.085-.367.069-.483l62.651-52.331a.368.368 0 01.433-.022l12.53 8.667a.399.399 0 01.161.315.38.38 0 01-.183.302l-75.181 43.663a.588.588 0 01-.219.04zm62.702-52.24l-59.206 49.447 71.04-41.254-11.834-8.193z"/><path d="M547.59 410.958a.336.336 0 01-.235-.12l-65.158-72.422a.371.371 0 01-.005-.475.376.376 0 01.467-.077l59.206 38.089c.082.05.146.141.167.244l5.952 34.333a.354.354 0 01-.204.386.312.312 0 01-.19.042zm-63.071-71.028l62.534 69.502-5.707-32.946-56.827-36.556zM591.271 456.914a.377.377 0 01-.287-.182l-30.997-53.077a.352.352 0 01-.034-.276.352.352 0 01.161-.217l11.226-6.52a.372.372 0 01.305-.033.352.352 0 01.212.219l19.77 59.611c.057.177-.029.357-.195.445-.031.026-.103.034-.161.03zm-30.474-53.307l29.091 49.812-18.546-55.928-10.545 6.116zM543.598 459.716a.246.246 0 01-.099-.022l-47.263-18.749a.367.367 0 01.072-.7l55.738-9.02a.347.347 0 01.322.112.357.357 0 01.073.337l-8.476 27.77a.316.316 0 01-.19.215c-.048.053-.12.062-.177.057zm-45.892-18.968l45.701 18.132 8.198-26.843-53.899 8.711z"/><path d="M570.011 500.747l-.042-.004a.333.333 0 01-.232-.163l-26.414-41.03a.346.346 0 01.02-.416.36.36 0 01.412-.11l55.092 20.656a.38.38 0 01.235.293.347.347 0 01-.142.334l-28.664 20.375a.467.467 0 01-.265.065zm-25.508-40.669l25.637 39.802 27.809-19.769-53.446-20.033z"/><path d="M598.69 480.373a.39.39 0 01-.236-.106l-46.617-48.426a.351.351 0 01-.052-.422l19.443-34.643a.362.362 0 01.658.054l27.174 83.069a.377.377 0 01-.15.42.325.325 0 01-.22.054zm-46.152-48.835l45.344 47.099-26.438-80.807-18.906 33.708z"/><path d="M543.598 459.716a.378.378 0 01-.169-.057.369.369 0 01-.151-.257l-5.158-44.039a.35.35 0 01.172-.345c.121-.077.264-.065.388.003l47.823 32.638c.109.081.17.215.158.358a.338.338 0 01-.268.281l-42.663 11.386c-.061.038-.09.036-.132.032zm-4.686-43.655l5.011 42.847 41.516-11.077-46.527-31.77zM617.212 539.047a.334.334 0 01-.195-.073l-47.201-38.301a.36.36 0 01-.095-.425.36.36 0 01.391-.198l37.487 7.544a.352.352 0 01.269.238l9.713 30.756a.375.375 0 01-.134.406.476.476 0 01-.235.053zm-45.814-38.014l45.137 36.62-9.291-29.411-35.846-7.209z"/><path d="M607.499 508.292c-.043-.004-.085-.022-.126-.039l-73.624-36.867a.42.42 0 01-.196-.246.37.37 0 01.068-.297l9.722-11.709a.364.364 0 01.494-.06l63.902 48.575c.149.113.19.318.09.483a.36.36 0 01-.33.16zm-73.024-37.336l69.781 34.94-60.57-46.029-9.211 11.089z"/><path d="M533.875 471.425a.353.353 0 01-.274-.166l-23.368-38.695a.353.353 0 01.127-.493l27.932-17.053a.385.385 0 01.374.001c.11.067.185.202.174.331l-4.564 55.748a.37.37 0 01-.271.323.416.416 0 01-.13.004zm-22.859-38.926l22.621 37.439 4.416-53.933-27.037 16.494z"/><path d="M533.875 471.425l-.057-.005a.368.368 0 01-.271-.382l4.565-55.748a.352.352 0 01.255-.31.335.335 0 01.379.118l13.634 16.269a.359.359 0 01.055.378l-18.198 39.479a.372.372 0 01-.362.201zm4.88-55.204l-4.328 52.86 17.254-37.44-12.926-15.42z"/><path d="M570.011 500.747a.39.39 0 01-.323-.271l-17.952-68.802a.407.407 0 01.001-.187l8.202-28.123a.357.357 0 01.7.071l9.735 96.924a.38.38 0 01-.291.394l-.072-.006zm-17.55-69.143l16.757 64.243-9.096-90.497-7.661 26.254zM609.697 532.949a.335.335 0 01-.196-.073l-16.867-13.685a.393.393 0 01-.124-.241l-6.568-70.934a.353.353 0 01.29-.379.339.339 0 01.41.263l23.435 84.62a.355.355 0 01-.147.391.689.689 0 01-.233.038zm-16.492-14.229l15.882 12.884-22.056-79.671 6.174 66.787z"/><path d="M516.237 457.131c-.042-.004-.071-.006-.113-.024a.313.313 0 01-.21-.248l-5.745-24.386a.368.368 0 01.051-.27.369.369 0 01.228-.154l66.227-13.918a.336.336 0 01.399.22.37.37 0 01-.136.435l-60.481 38.305a.479.479 0 01-.22.04zm-5.277-24.479l5.542 23.536 58.372-36.981-63.914 13.445zM496.335 440.967l-.028-.002a.36.36 0 01-.282-.254l-10.683-35.08a.362.362 0 01.178-.417l55.999-29.261a.368.368 0 01.44.079.37.37 0 01.021.448l-45.33 64.34a.37.37 0 01-.315.147zm-10.237-35.26l10.391 34.093 44.031-62.533-54.422 28.44zM653.039 419.779a.368.368 0 01-.333-.33l-2.788-30.634a.32.32 0 01.045-.198l26.684-48.915a.358.358 0 01.46-.164.369.369 0 01.209.434l-23.897 79.55a.382.382 0 01-.38.257zm-2.391-30.919l2.603 28.677 22.373-74.48-24.976 45.803z"/><path d="M629.867 457.599l-18.096-1.482a.362.362 0 01-.311-.241.35.35 0 01.103-.38l41.267-36.339c.139-.118.341-.116.461-.005a.377.377 0 01.077.467l-23.171 37.82a.389.389 0 01-.33.16zm-17.194-2.128l17.039 1.395 21.809-35.6-38.848 34.205z"/><path d="M617.212 539.047l-.057-.004a.353.353 0 01-.268-.411l12.655-81.449a.36.36 0 01.253-.281l13.003-3.972a.362.362 0 01.353.086.35.35 0 01.086.353l-25.659 85.435c-.042.155-.208.256-.366.243zm13.008-81.535l-11.828 76.092 23.975-79.803-12.147 3.711z"/><path d="M642.872 453.612a.278.278 0 01-.181-.072l-48.342-36.494a.386.386 0 01-.147-.314.349.349 0 01.196-.287l55.721-27.974a.35.35 0 01.372.031c.108.081.17.201.146.328l-7.38 64.469a.334.334 0 01-.21.285.377.377 0 01-.175.028zm-47.628-36.781l47.38 35.768 7.231-63.185-54.611 27.417zM624.387 505.199a.353.353 0 01-.221-.105l-25.698-24.826a.335.335 0 01-.066-.422l13.082-24.271c.068-.124.188-.186.361-.186.143.012.263.122.309.27l12.615 49.096a.362.362 0 01-.162.404.48.48 0 01-.22.04zm-25.231-25.249l24.591 23.757-12.069-46.979-12.522 23.222z"/><path d="M611.771 456.117a.39.39 0 01-.236-.106l-35.052-37.291a.336.336 0 01-.071-.366.374.374 0 01.307-.233l17.81-1.694a.338.338 0 01.356.217l17.242 38.984a.359.359 0 01-.137.449.53.53 0 01-.219.04zm-34.254-37.37l33.105 35.232-16.282-36.833-16.823 1.601zM299.851 415.483a.374.374 0 01-.274-.166l-36.865-61.371a.392.392 0 01-.014-.361l11.652-21.739c.067-.124.234-.226.346-.188a.353.353 0 01.31.256l25.214 83.11a.35.35 0 01-.194.43.376.376 0 01-.175.029zm-36.432-61.738l35.269 58.722-24.126-79.525-11.143 20.803z"/><path d="M314.209 368.595l-.071-.006-51.224-14.482a.334.334 0 01-.164-.1l-16.169-17.643a.349.349 0 01-.02-.462.345.345 0 01.44-.108l67.393 32.126c.166.085.251.279.179.446a.352.352 0 01-.364.229zm-50.995-15.155l47.06 13.308-61.922-29.519 14.862 16.211z"/><path d="M277.688 378.599a.429.429 0 01-.209-.089.394.394 0 01-.123-.254l-3.05-46.227c-.004-.13.05-.255.156-.318.107-.078.236-.082.362-.028l81.028 38.883a.377.377 0 01.198.39.35.35 0 01-.326.29l-77.962 7.331a.09.09 0 01-.074.022zm-2.624-45.99l2.987 45.243 76.31-7.178-79.297-38.065zM321.905 473.555a.373.373 0 01-.323-.272l-12.436-47.239a.34.34 0 01.07-.326.345.345 0 01.298-.133l34.336 2.811a.373.373 0 01.287.182.346.346 0 01.016.332l-21.913 44.427c-.042.155-.177.23-.335.218zm-11.921-47.198l12.062 45.828 21.258-43.1-33.32-2.728zM666.214 185.39a.321.321 0 01-.113-.023l-13.681-5.855a.374.374 0 01-.211-.406.353.353 0 01.354-.287l32.524-.028a.356.356 0 01.35.302c.029.175-.085.338-.249.397l-18.843 5.882a.398.398 0 01-.131.018zm-11.911-5.853l11.956 5.123 16.466-5.142-28.422.019zM209.757 62.87a.47.47 0 01-.195-.073l-15.8-12.835a.36.36 0 01-.095-.425.358.358 0 01.391-.198l42.012 8.347c.17.028.287.182.287.355a.356.356 0 01-.302.349l-26.212 4.488a20.237 20.237 0 00-.086-.007zM195.33 50.322l14.56 11.812 24.139-4.125-38.699-7.687zM424.682 165.615l-.015-.002a.326.326 0 01-.26-.165l-22.19-37.073a.345.345 0 01.017-.387.363.363 0 01.357-.143l51.525 9.039a.38.38 0 01.282.253.331.331 0 01-.102.366l-29.335 28.034a.454.454 0 01-.279.078zm-21.454-36.941l21.558 36.014 28.491-27.225-50.049-8.789zM85.289 153.656a.234.234 0 01-.1-.023.375.375 0 01-.233-.307L82.75 129.46a.366.366 0 01.232-.37c.149-.06.317-.003.42.135l10.87 15.583a.352.352 0 01-.053.47l-8.665 8.285a.339.339 0 01-.266.093zm-1.694-22.904l2.016 21.779 7.914-7.554-9.93-14.225zM808.569 244.533c-.042-.003-.071-.005-.113-.023l-39.557-17.068a.352.352 0 01-.214-.377.368.368 0 01.313-.306l24.196-2.537a.335.335 0 01.32.141l15.361 19.605a.366.366 0 01.006.447.36.36 0 01-.312.118zm-38.121-17.209l37.014 15.968-14.371-18.33-22.643 2.362zM570.723 402.592a.322.322 0 01-.181-.072l-88.279-64.041-70.761-44.23a.356.356 0 01-.119-.485c.1-.164.307-.233.473-.148l79.819 40.108 79.302 68.227a.361.361 0 01.046.493.316.316 0 01-.3.148zM418.398 297.721l64.244 40.17s.015.001.014.016l81.296 58.979-72.688-62.534-72.866-36.631zM218.726 172.496a.335.335 0 01-.248-.136l-33.206-42.435a.351.351 0 01.025-.473.354.354 0 01.477-.033l58.307 43.973c.121.096.18.259.124.413a.352.352 0 01-.364.229l-25.115-1.538zm-31.205-40.862l31.421 40.16 23.754 1.456-55.175-41.616z"/><path d="M301.406 232.509l-.057-.005-59.49-14.584a.353.353 0 01-.272-.367l1.91-43.893a.386.386 0 01.229-.326.347.347 0 01.381.089l57.565 58.475a.366.366 0 01.051.435.332.332 0 01-.317.176zm-59.091-15.228l57.965 14.215-56.104-56.988-1.861 42.773zM586.261 448.33a.358.358 0 01-.248-.136l-18.693-23.72a.366.366 0 01-.079-.265l3.157-22.032a.352.352 0 01.327-.305.34.34 0 01.368.246l15.538 45.738a.362.362 0 01-.165.433.329.329 0 01-.205.041zm-18.282-24.176l17.313 21.952-14.391-42.348-2.922 20.396z"/><path d="M592.829 519.265c-.028-.003-.057-.005-.084-.022a.33.33 0 01-.225-.248l-25.261-94.655c-.043-.177.045-.371.222-.428.178-.058.373.016.446.18l39.931 83.682c.074.15.03.333-.108.437l-14.67 10.973a.334.334 0 01-.251.081zm-23.891-91.349l24.128 90.389 14.011-10.48-38.139-79.909z"/><path d="M617.212 539.047a.334.334 0 01-.195-.073l-24.383-19.783a.36.36 0 01-.077-.467c.099-.15.291-.221.457-.135l21.354 10.21a.347.347 0 01.184.216l3.015 9.572a.378.378 0 01-.134.406.389.389 0 01-.221.054zm-21.782-18.505l21.104 17.126-2.617-8.287-18.487-8.839zM476.101 139.389a.337.337 0 01-.194-.088l-13.837-11.508a.34.34 0 01-.096-.411.374.374 0 01.363-.215l29.361 2.404a.358.358 0 01.323.271.385.385 0 01-.161.39l-15.525 9.104a.38.38 0 01-.234.053zm-12.709-11.401l12.773 10.615 14.33-8.396-27.103-2.219zM560.097 541.034a.358.358 0 01-.146.364.352.352 0 01-.406.011l.552-.375zM485.638 405.886l-.057-.005-129.987-34.631c-.183-.044-.285-.211-.27-.396a.347.347 0 01.37-.301l185.986 5.37c.214.018.306.126.338.272a.383.383 0 01-.177.403l-56 29.261a.513.513 0 01-.203.027zM358.752 371.35l126.874 33.801 54.661-28.565-181.535-5.236z"/><path d="M374.582 509.655a.354.354 0 01-.261-.15.368.368 0 01.039-.472l111.055-103.77a.352.352 0 01.449-.035.376.376 0 01.138.428l-20.861 52.313a.365.365 0 01-.158.174L374.788 509.6c-.062.053-.134.061-.206.055zm110.153-102.764L377.092 507.472l87.417-49.871 20.226-50.71z"/><path d="M375.183 462.073a.375.375 0 01-.288-.182.388.388 0 01.002-.374l29.038-46.549a.386.386 0 01.229-.168.4.4 0 01.284.052l60.557 42.675a.37.37 0 01.14.4.388.388 0 01-.324.261l-89.594 3.874c-.016.013-.03.012-.044.011zm29.168-46.395l-28.474 45.646 87.862-3.8-59.388-41.846zM455.57 491.377l-.042-.004-27.73-5.81a.363.363 0 01-.289-.326.355.355 0 01.246-.368l20.504-7.186a.363.363 0 01.433.165l7.224 12.996c.062.12.064.278-.031.386-.067.109-.186.157-.315.147zm-26.369-6.246l25.706 5.386-6.698-12.047-19.008 6.661zM389.448 287.838a.325.325 0 01-.195-.073l-52.086-42.787a.411.411 0 01-.134-.299l.423-9.564a.35.35 0 01.227-.312c.133-.047.29-.02.381.089l51.649 52.349c.132.141.143.357.017.491a.35.35 0 01-.282.106zm-51.683-43.315l46.639 38.312-46.255-46.872-.384 8.56zM575.674 287.645a.335.335 0 01-.275-.166l-10.452-16.282a.372.372 0 01.004-.403c.082-.123.244-.167.372-.142l28.679 7.212c.14.04.245.164.262.309a.357.357 0 01-.202.358l-18.228 9.084c-.031.026-.103.035-.16.03zm-9.634-16.086l9.788 15.25 17.073-8.503-26.861-6.747zM607.499 508.292a.386.386 0 01-.209-.09l-33.938-29.976a.347.347 0 01-.121-.283.365.365 0 01.152-.276l19.696-14.533a.354.354 0 01.32-.045.335.335 0 01.226.234l14.243 44.509a.36.36 0 01-.149.405.388.388 0 01-.22.055zm-33.336-30.302l32.623 28.818-13.693-42.795-18.93 13.977z"/><path d="M577.506 478.638a.426.426 0 01-.141-.04l-33.922-18.923a.35.35 0 01-.181-.26.317.317 0 01.096-.294l34.351-35.869a.362.362 0 01.395-.082c.14.054.229.191.218.334l-.443 54.791a.32.32 0 01-.183.301c-.046.04-.119.048-.19.042zm-33.297-19.361l32.987 18.4.419-53.281-33.406 34.881zM712.093 348.633a.353.353 0 01-.261-.15l-19.224-27.434a.333.333 0 01-.029-.347.375.375 0 01.276-.208l38.216-5.404a.35.35 0 01.347.157.357.357 0 01.013.376l-18.993 32.837a.352.352 0 01-.288.178.8.8 0 01-.057-.005zm-18.57-27.509l18.566 26.502 18.339-31.711-36.905 5.209zM754.494 299.336c-.143-.012-.279-.109-.31-.256a.349.349 0 01.207-.429l34.703-13.808a.325.325 0 01.161-.03l26.684 2.228a.358.358 0 01.332.344.34.34 0 01-.289.365l-61.387 11.58c-.029-.002-.073.008-.101.006zm34.803-13.8l-31.177 12.399 55.132-10.409-23.955-1.99zM344.599 292.873a.519.519 0 01-.279-.11c-.123-.082-.184-.216-.215-.363l-7.945-63.248a.558.558 0 01.26-.539.569.569 0 01.601.034l70.866 54.211c.176.13.244.351.198.563a.535.535 0 01-.45.395l-62.92 9.037a.271.271 0 01-.116.02zm-7.209-62.584l7.72 61.431 61.115-8.782-68.835-52.649z"/><path d="M356.849 248.877a.535.535 0 01-.251-.092l-80.817-54.119a.54.54 0 01-.156-.733.53.53 0 01.721-.185l60.62 34.866c.042.018.068.049.109.081l20.196 19.253c.2.189.217.507.056.724a.572.572 0 01-.478.205zm-67.366-46.326l62.509 41.856-15.618-14.892-46.891-26.964zM482.152 448.454a.516.516 0 01-.436-.294.54.54 0 01.215-.702l89.335-50.966a.515.515 0 01.613.064.547.547 0 01.152.603l-6.058 15.117a.563.563 0 01-.283.294l-83.292 35.861a.66.66 0 01-.246.023zm88.313-50.272l-79.659 45.455 74.268-31.981 5.391-13.474zM442.708 470.954a.51.51 0 01-.333-.156.543.543 0 01-.074-.668l16.755-27.135a.499.499 0 01.38-.243l35.913-5.737a.541.541 0 01.59.351.521.521 0 01-.225.643l-52.669 32.872a.55.55 0 01-.337.073zm17.133-27.176l-15.413 24.972 48.468-30.252-33.055 5.28z"/><path d="M459.464 443.819a.551.551 0 01-.425-.264.544.544 0 01.128-.681l82.158-67.009a.52.52 0 01.525-.086.541.541 0 01.341.402l6.31 34.362a.543.543 0 01-.337.606l-88.469 32.661c-.073.008-.16.015-.231.009zm81.833-66.56l-78.952 64.408 85.025-31.374-6.073-33.034zM367.074 501.529a.579.579 0 01-.373-.189l-21.784-25.873a.528.528 0 01.474-.867l82.536 10.096a.55.55 0 01.477.499.535.535 0 01-.406.557l-60.737 15.778a.89.89 0 01-.187-.001zm-20.445-25.706l20.681 24.574 57.679-14.978-78.36-9.596z"/><path d="M345.29 475.656a.47.47 0 01-.239-.077.54.54 0 01-.251-.438l-1.487-46.343a.542.542 0 01.33-.52.545.545 0 01.595.121l31.364 32.946a.51.51 0 01.134.471.56.56 0 01-.306.392l-29.877 13.398a.536.536 0 01-.263.05zm-.852-45.485l1.408 44.135 28.443-12.752-29.851-31.383z"/><path d="M343.803 429.313a.512.512 0 01-.333-.157.512.512 0 01-.147-.487l11.833-57.872a.538.538 0 01.887-.288l48.554 44.269a.56.56 0 01.158.531.507.507 0 01-.405.384l-60.387 13.604a.506.506 0 01-.16.016zm12.224-57.38l-11.474 56.132 58.569-13.192-47.095-42.94zM676.921 340.401a.555.555 0 01-.36-.174.547.547 0 01-.03-.693l31.426-39.864a.545.545 0 01.52-.202l23.632 4.18a.552.552 0 01.44.425.54.54 0 01-.233.556l-55.071 35.683a.433.433 0 01-.324.089zm31.695-39.813l-29.225 37.065 51.197-33.18-21.972-3.885zM600.071 286.865l-.043-.003-44.18-7.186a.535.535 0 01-.448-.497l-3.379-55.924a.54.54 0 01.346-.533.55.55 0 01.618.18l47.558 63.124c.13.169.138.414.036.608a.59.59 0 01-.508.231zm-43.624-8.176l42.434 6.899-45.676-60.624 3.242 53.725z"/><path d="M686.25 300.973a.571.571 0 00-.043-.004l-86.179-14.107a.543.543 0 01-.443-.569.545.545 0 01.531-.503l164.335-3.151c.26-.008.516.2.551.476a.521.521 0 01-.422.585l-78.157 17.272c-.073.009-.116.005-.173.001zm-80.212-14.223l80.244 13.132 72.778-16.073-153.022 2.941zM611.991 487.175a.54.54 0 01-.408-.825l41.034-67.224a.518.518 0 01.678-.204.53.53 0 01.293.643l-10.168 33.848a.496.496 0 01-.118.206l-30.865 33.376a.548.548 0 01-.446.18zm39.367-63.922l-36.047 59.042 27.108-29.31 8.939-29.732z"/><path d="M614.167 529.66l-.071-.006a.518.518 0 01-.42-.495l-2.177-42.485a.532.532 0 01.301-.508.518.518 0 01.583.077l16.606 14.066a.537.537 0 01.133.658l-14.429 28.42a.56.56 0 01-.526.273zm-1.527-41.813l2.012 39.234 13.329-26.236-15.341-12.998zM555.891 279.679a.253.253 0 01-.099-.022l-46.49-12.714a.525.525 0 01-.349-.302l-5.841-13.545a.569.569 0 01.121-.609.528.528 0 01.612-.093l52.332 26.258a.54.54 0 01.262.669.548.548 0 01-.548.358zm-46.063-13.7l41.029 11.216-46.181-23.165 5.152 11.949zM449.819 217.132a1.538 1.538 0 01-.057-.005l-28.931-5.189a.53.53 0 01-.415-.379l-19.74-67.006a.532.532 0 01.282-.639.553.553 0 01.676.185l48.671 72.195a.548.548 0 01.009.591.569.569 0 01-.495.247zm-28.474-6.202l27.357 4.902-46.014-68.265 18.657 63.363z"/><path d="M517.333 224.401l-67.542-7.271a.544.544 0 01-.485-.587l.001-.014c.025-.3.256-.483.587-.484l67.528 7.27a.54.54 0 01.484.586l-.001.014a.52.52 0 01-.572.486z"/><path d="M565.207 271.535a.517.517 0 01-.333-.157l-47.14-46.426-7.764 41.571a.524.524 0 01-.349.403.509.509 0 01-.525-.101l-59.582-49.833a.545.545 0 01-.15-.631c.105-.222.332-.361.573-.313l63.491 9.3-.16 1.066-61.614-9.017 57.413 48.03 7.786-41.67a.516.516 0 01.365-.416.83.83 0 01.261-.022l67.279 12.776c.17.028.319.141.392.305a.496.496 0 01-.025.488l-19.42 34.356a.53.53 0 01-.396.27c-.031.026-.074.023-.102.021zm-46.188-46.809l46.101 45.406 18.697-33.092-64.798-12.314zM274.623 332.544a.526.526 0 01-.398-.234.527.527 0 01-.045-.507l15.099-35.2a.541.541 0 01.356-.302.518.518 0 01.454.081l46.558 33.671a.521.521 0 01.197.592.55.55 0 01-.506.376l-61.644 1.529-.071-.006zm15.362-34.89l-14.497 33.81 59.221-1.469-44.724-32.341z"/><path d="M355.636 371.44a.317.317 0 01-.113-.023.522.522 0 01-.322-.286l-19.37-40.425a.53.53 0 01.045-.543.538.538 0 01.494-.233l78.976 6.466a.559.559 0 01.485.414.525.525 0 01-.264.583l-59.607 33.959a.455.455 0 01-.324.088zm-18.44-40.349l18.719 39.048 57.584-32.8-76.303-6.248zM775.932 234.868l-.043-.004-41.594-6.6a.404.404 0 01-.181-.072l-21.391-12.401a.539.539 0 01-.217-.679.53.53 0 01.644-.307l62.97 18.999a.53.53 0 01.365.634.527.527 0 01-.553.43zm-41.365-7.647l33.667 5.347-50.977-15.384 17.31 10.037z"/><path d="M764.875 277.996a.55.55 0 01-.412-.249l-30.537-49.729a.526.526 0 01.004-.575.535.535 0 01.537-.23l41.594 6.6a.57.57 0 01.37.232.541.541 0 01.066.423l-11.043 43.13a.54.54 0 01-.435.396c-.057-.005-.102.006-.144.002zm-29.429-49.552l29.269 47.64 10.578-41.326-39.847-6.314z"/><path d="M689.8 257.618c-.043-.004-.071-.006-.113-.024a.516.516 0 01-.334-.315l-12.294-30.003a.518.518 0 01.056-.499.53.53 0 01.451-.237l56.832.639a.525.525 0 01.515.387.532.532 0 01-.222.601l-44.537 29.35a.476.476 0 01-.354.101zm-11.447-29.977l11.743 28.648 42.53-28.032-54.273-.616zM728.059 224.631c-.043-.004-.086-.007-.127-.025L619.805 188.21a.536.536 0 01-.349-.662.53.53 0 01.648-.364l51.008 12.897c.029.002.056.019.071.02l57.119 23.499a.547.547 0 01.303.687.551.551 0 01-.546.344zm-94.692-32.994l79.377 26.717-41.932-17.247-37.445-9.47zM774.271 255.151a.521.521 0 01-.448-.324.542.542 0 01.137-.622l15.141-13.035a.568.568 0 01.456-.121l35.222 7.445c.255.05.436.295.43.553a.528.528 0 01-.474.508l-50.348 5.591a.372.372 0 01-.116.005zm15.324-12.991l-13.624 11.735 45.309-5.025-31.685-6.71zM440.06 151.073a.532.532 0 01-.472-.384.517.517 0 01.221-.586l14.727-9.918a.492.492 0 01.424-.08l51.511 12.376a.546.546 0 01.412.595.532.532 0 01-.556.459l-66.238-2.459-.029-.003zm14.881-9.862l-13.159 8.867 59.194 2.198-46.035-11.065z"/><path d="M470.812 190.445c-.043-.004-.071-.006-.113-.024l-98.993-28.971a.548.548 0 01-.386-.55.54.54 0 01.457-.495l68.24-10.386a.525.525 0 01.502.2l30.753 39.357a.54.54 0 01-.46.869zm-96.457-29.354l95.058 27.814-29.529-37.789-65.529 9.975z"/><path d="M371.819 161.474c-.028-.003-.071-.006-.099-.023a.57.57 0 01-.324-.257l-25.702-47.433a.54.54 0 01.095-.64.532.532 0 01.641-.091l55.031 30.897c.164.1.28.267.278.469a.54.54 0 01-.268.467l-29.329 16.536a.635.635 0 01-.323.075zm-24.303-46.6l24.567 45.312 28.016-15.795-52.583-29.517zM650.4 361.657a.534.534 0 01-.385-.219l-12.833-17.614c-.089-.137-.134-.299-.078-.452a.525.525 0 01.302-.35l14.792-6.315a.54.54 0 01.528.058.548.548 0 01.22.478l-1.958 23.915a.532.532 0 01-.384.472.577.577 0 01-.204.027zm-11.945-17.916l11.579 15.885 1.767-21.584-13.346 5.699z"/><path d="M650.4 361.657c-.028-.003-.071-.006-.099-.023a.523.523 0 01-.361-.332l-15.209-42.2a.525.525 0 01.148-.577.53.53 0 01.597-.081l41.729 20.944a.553.553 0 01.296.427.555.555 0 01-.197.473l-26.52 21.256a.535.535 0 01-.384.113zm-14.204-41.643l14.508 40.214 25.274-20.264-39.782-19.95z"/><path d="M650.4 361.657a.438.438 0 01-.182-.059.545.545 0 01-.302-.528l1.958-23.914a.557.557 0 01.34-.462l40.662-16.112a.53.53 0 01.645.211.543.543 0 01-.085.684l-42.62 40.026a.511.511 0 01-.416.154zm2.518-24.071l-1.818 22.2 39.549-37.141-37.731 14.941zM532.525 467.876a.579.579 0 01-.253-.079l-16.287-10.572a.448.448 0 01-.147-.141l-14.205-20.187a.55.55 0 01.088-.727.548.548 0 01.731.031l30.493 30.759a.553.553 0 01.042.723.572.572 0 01-.462.193zm-15.866-11.502l12.011 7.79-22.477-22.678 10.466 14.888zM459.814 338.31a.547.547 0 01-.347-.158l-52.295-54.475a.527.527 0 01-.044-.694.53.53 0 01.675-.16l68.028 34.911a.578.578 0 01.286.369.575.575 0 01-.109.451l-15.747 19.563a.526.526 0 01-.39.198l-.057-.005zm-49.634-53.062l49.644 51.71 14.947-18.577-64.591-33.133z"/><path d="M477.163 404.113c-.158-.013-.27-.051-.336-.114-.095-.08-.4-.393-.183-.936 1.3-3.391-.457-56.98-1.573-84.83a.53.53 0 01.33-.52.545.545 0 01.595.121l54.914 57.452c.12.125.164.287.151.444a.612.612 0 01-.263.396c-14.972 8.689-49.333 28.339-53.635 27.987zm-.967-84.507c.428 10.943 2.947 77.013 1.536 83.531 4.025-.476 33.381-16.823 51.934-27.593l-53.47-55.938zM404.204 415.71c-.057-.005-.098-.023-.155-.042a.527.527 0 01-.327-.574l11.039-78.228a.528.528 0 01.541-.459l44.572.814a.494.494 0 01.465.298.557.557 0 01-.046.557l-55.609 77.399a.53.53 0 01-.48.235zm11.542-78.216l-10.664 75.582 53.741-74.789-43.077-.793zM276.033 194.758a.303.303 0 01-.155-.041l-66.322-25.692a.54.54 0 01-.348-.503.555.555 0 01.344-.504l17.797-7.163a.563.563 0 01.499.055l48.539 32.856a.519.519 0 01.174.69c-.118.206-.314.32-.528.302zm-64.824-26.245l60.632 23.484-44.368-30.024-16.264 6.54zM344.599 292.873a.525.525 0 01-.471-.399.524.524 0 01.25-.598l42.065-24.991a.549.549 0 01.709.13l20.016 26.203-.107.078 4.653.107-.03 1.077-67.056-1.619c-.015.013-.015.013-.029.012zm41.98-24.826l-40.039 23.79 59.314 1.432-19.275-25.222zM102.501 98.612a.604.604 0 01-.293-.11.547.547 0 01-.199-.376l-2.464-27.558a.542.542 0 01.258-.511.55.55 0 01.574.018l33.133 22.946c.176.13.273.353.213.564a.554.554 0 01-.451.41l-30.669 4.611c-.016.013-.059.01-.102.006zm-1.775-26.997l2.316 25.847 28.761-4.336-31.077-21.511zM229.075 115.696a.525.525 0 01-.197-.059l-59.809-30.008a.536.536 0 01-.263-.655c.092-.251.351-.417.604-.353l42.443 8.195a.496.496 0 01.314.198l17.367 21.827c.156.2.162.474.002.677a.537.537 0 01-.461.178zm-56.041-29.282l54.156 27.17-15.723-19.75-38.433-7.42z"/><path d="M102.501 98.612a.498.498 0 01-.345-.172L75.491 69.606a.543.543 0 01.604-.871l57.332 24.236c.223.09.348.33.329.56a.55.55 0 01-.456.465l-30.669 4.613c-.044.01-.087.007-.13.003zM77.976 70.716l24.775 26.78 28.498-4.286-53.272-22.494zM708.345 300.551a.537.537 0 01-.448-.324l-18.546-42.92a.521.521 0 01.089-.568c.128-.162.349-.216.547-.171l75.075 20.364a.534.534 0 01.392.493.55.55 0 01-.332.534l-56.529 22.555a.672.672 0 01-.248.037zM690.784 257.9l17.893 41.412 54.551-21.767-72.444-19.645zM415.243 337.481a.451.451 0 01-.292-.124.558.558 0 01-.191-.476l3.968-38.27a.52.52 0 01.248-.397.523.523 0 01.465-.048l56.335 19.535a.536.536 0 01.361.519.532.532 0 01-.372.501l-60.319 18.748c-.073.009-.131.018-.203.012zm4.485-38.083l-3.817 36.785 57.971-18.019-54.154-18.766zM615.564 534.049a.604.604 0 01-.293-.111l-34.096-27.01a.523.523 0 01-.184-.562.522.522 0 01.449-.381l25.621-3.068a.53.53 0 01.587.393l8.473 30.079a.515.515 0 01-.22.586.688.688 0 01-.337.074zm-32.715-27.171l31.784 25.181-7.907-28.033-23.877 2.852zM258.24 242.991a.494.494 0 01-.423-.279.54.54 0 01.015-.532l26.734-44.262a.557.557 0 01.454-.265.517.517 0 01.454.253l29.534 46.682a.556.556 0 01.012.562.5.5 0 01-.482.263l-56.269-2.42-.029-.002zm26.796-43.783l-25.818 42.741 54.333 2.333-28.515-45.074z"/><path d="M415.467 336.476l-.319 1.027 126.373 39.322.32-1.027-126.374-39.322zM481.851 401.513l-106.877 59.685.525.939 106.877-59.685-.525-.939zM392.201 200.255a.637.637 0 01-.225-.062l-34.977-19.758a.53.53 0 01-.233-.666.539.539 0 01.631-.323l29.52 7.842a.525.525 0 01.349.302l5.457 11.916a.543.543 0 01-.123.623.557.557 0 01-.399.126zm-31.005-18.699l29.873 16.879-4.663-10.181-25.21-6.698zM183.054 160.178a.686.686 0 01-.169-.042l-43.617-18.811a.534.534 0 01-.324-.429l-6.267-47.368a.504.504 0 01.334-.563.544.544 0 01.633.167l49.884 66.178a.54.54 0 01-.011.661.493.493 0 01-.463.207zm-43.082-19.716l41.476 17.887-47.43-62.927 5.954 45.04zM637.58 344.058a.581.581 0 01-.412-.235l-37.496-57.177a.548.548 0 01.101-.712.547.547 0 01.718.016l35.119 32.606a.61.61 0 01.173.345l2.391 24.587a.54.54 0 01-.363.56c-.086.008-.159.016-.231.01zm-34.593-54.32l33.876 51.657-2.153-22.208-31.723-29.449zM39.65 55.85a.51.51 0 01-.412-.25L10.562 8.457a.523.523 0 01.098-.668.546.546 0 01.68-.045L30.31 21.57a.455.455 0 01.193.289l9.705 33.316a.532.532 0 01-.297.638c-.088.022-.176.043-.262.036zM12.867 10.17L38.03 51.545l-8.514-29.233L12.868 10.17z"/><path d="M100.038 71.055c-.057-.005-.113-.024-.17-.043L30.933 41.754l.426-.987 64.097 27.207-65.79-45.55.62-.884 70.106 48.536a.531.531 0 01.159.704.517.517 0 01-.512.275z"/><path d="M102.501 98.612a.498.498 0 01-.345-.172L75.491 69.606l-.078-.093-14.488-25.52a.542.542 0 01.174-.72.535.535 0 01.723.132l41.153 54.34a.536.536 0 01-.089.74.47.47 0 01-.385.127zM76.324 68.926L95.505 89.68 65.883 50.573l10.441 18.353zM136.119 142.176a.53.53 0 01-.398-.235.55.55 0 01-.062-.479l11.492-34.906a.543.543 0 01.33-.332.543.543 0 01.47.053c2.227 1.448 54.512 35.488 56.164 36.746.19.145.295.441.205.664-.168.476-.539 1.481-68.186-1.525-.001.015-.015.014-.015.014zm11.827-34.605l-11.051 33.56c23.946 1.054 58.662 2.371 65.539 2.042-7.287-4.856-49.023-32.046-54.488-35.602zM334.287 170.647a.864.864 0 01-.184-.044l-44.718-20.642a.542.542 0 01-.294-.628c.064-.254.293-.408.58-.399l53.163 5.375a.542.542 0 01.423.279.522.522 0 01.002.504l-8.446 15.281a.567.567 0 01-.526.274zm-41.536-20.324l41.35 19.085 7.804-14.125-49.154-4.96z"/><path d="M289.57 149.991a.658.658 0 01-.225-.062l-60.481-34.293a.536.536 0 01.109-.984l36.706-10.853a.54.54 0 01.626.267l23.789 45.147a.54.54 0 01-.096.64.6.6 0 01-.428.138zm-59.083-34.669l57.785 32.764-22.73-43.133-35.055 10.369z"/><path d="M317.527 138.076a.686.686 0 01-.169-.042L211.553 93.842a.547.547 0 01-.306-.659.545.545 0 01.62-.366l54.072 10.974a.76.76 0 01.181.073l51.746 33.233a.538.538 0 01.187.706.535.535 0 01-.526.273zM217.03 94.966l95.089 39.732-46.51-29.869-48.579-9.863zM392.201 200.255a.577.577 0 01-.319-.142l-49.468-44.889a.552.552 0 01-.12-.643.54.54 0 01.584-.283l29.088 6.094c.156.027.29.139.366.275l20.38 38.795a.545.545 0 01-.142.679.499.499 0 01-.369.114zM344.6 155.763l45.745 41.505-18.85-35.878-26.895-5.627zM387.501 286.657c-10.235-.838-70.632-39.657-73.23-41.323a.542.542 0 01-.206-.65.524.524 0 01.602-.325l51.52 9.816a.561.561 0 01.289.153c2.617 2.661 25.53 26.165 23.432 31.231-.214.501-.738 1.106-2.049 1.128-.128-.025-.243-.02-.358-.03zm-70.299-40.738c11.638 7.428 62.813 39.723 70.645 39.673.879-.014 1.007-.349 1.06-.46 1.363-3.299-13.381-20.062-23.092-29.937l-48.613-9.276z"/><path d="M357.224 180.497a.576.576 0 01-.211-.061l-36.498-19.983a.533.533 0 01-.272-.54.556.556 0 01.412-.456l22.005-5.134a.537.537 0 01.584.249l14.493 25.118a.518.518 0 01-.082.641.53.53 0 01-.431.166zm-34.959-20.318l33.577 18.392-13.333-23.109-20.244 4.717zM232.62 310.902a.557.557 0 01-.373-.189l-22.962-27.826a.483.483 0 01-.108-.44.5.5 0 01.275-.366l15.489-8.503a.531.531 0 01.491-.017c.152.07.27.209.299.384l7.486 36.344a.53.53 0 01-.293.594c-.116.005-.204.027-.304.019zm-22.081-28.214l21.169 25.65-6.899-33.505-14.27 7.855z"/><path d="M262.97 354.298a.513.513 0 01-.435-.309l-37.822-79.739a.534.534 0 01.199-.674.527.527 0 01.697.1l49.475 57.985a.55.55 0 01.065.61l-11.652 21.739a.512.512 0 01-.483.277c-.029.012-.044.011-.044.011zm-35.556-76.834l35.626 75.099 10.974-20.486-46.6-54.613z"/><path d="M225.148 274.559a.473.473 0 01-.292-.125c-18.199-14.988-44.288-36.263-53.431-43.228-1.742-.876-2.973-1.654-3.456-2.254-.377-.492-.194-.793-.054-.926.25-.238.439-.439 4.031 2.259 7.826 3.893 27.207 10.257 35.403 12.799a.49.49 0 01.297.24l18 30.427a.524.524 0 01-.113.681.544.544 0 01-.385.127zm-49.491-41.438c4.274 3.343 11.012 8.744 21.67 17.417a6816.026 6816.026 0 0125.842 21.125l-16.344-27.629c-2.317-.708-20.429-6.393-31.168-10.913z"/><path d="M283.96 273.69a.305.305 0 01-.155-.041l-76.826-29.559a.546.546 0 01-.341-.59.55.55 0 01.512-.447l51.107-1.14a.572.572 0 01.43.194l25.72 30.699a.563.563 0 01.032.664.55.55 0 01-.479.22zm-74.044-29.619l72.335 27.824-24.212-28.906-48.123 1.082z"/><path d="M274.623 332.544a.542.542 0 01-.481-.629l9.339-58.868a.526.526 0 01.38-.43.538.538 0 01.548.16l52.305 57.339a.514.514 0 01.097.57.524.524 0 01-.486.32l-61.644 1.529a.097.097 0 01-.058.009zm9.744-58.202l-9.065 57.121 59.827-1.491-50.762-55.63zM543.582 459.902a.51.51 0 01-.306-.126l-33.036-27.643a.55.55 0 01-.193-.462.529.529 0 01.279-.423l37.401-21.099a.526.526 0 01.56.017.547.547 0 01.247.495l-4.363 48.728a.532.532 0 01-.325.448.5.5 0 01-.264.065zm-32.049-28.095l31.649 26.479 4.182-46.684-35.831 20.205zM653.024 419.95l-.014-.001a.535.535 0 01-.464-.484l-2.788-30.635a.8.8 0 00.005-.057l.164-27.659a.555.555 0 01.268-.467.541.541 0 01.533 0l18.833 11.112c.22.133.313.4.236.638l-16.21 47.182a.564.564 0 01-.563.371zm-2.209-31.191l2.563 28.098 15.248-44.398-17.639-10.409-.172 26.709zM151.817 55.896a.489.489 0 01-.332-.156l-14.344-14.457a.525.525 0 01-.076-.654.522.522 0 01.61-.238l45.063 12.741c.253.079.42.323.384.579a.525.525 0 01-.499.477l-30.719 1.701c-.044.01-.072.008-.087.007zm-12.475-13.9l12.722 12.827 27.263-1.51-39.985-11.317zM235.206 319.92a.504.504 0 01-.385-.218l-66.866-90.766a.558.558 0 01.027-.674l10.029-11.77a.552.552 0 01.462-.193.53.53 0 01.424.28l56.821 102.534a.542.542 0 01-.188.719.501.501 0 01-.324.088zm-66.133-91.281l61.673 83.707-52.409-94.561-9.264 10.854z"/><path d="M258.24 242.991c-.043-.004-.086-.007-.113-.024l-79.87-25.606a.549.549 0 01-.369-.419.528.528 0 01.201-.516l23.064-17.711a.54.54 0 01.648-.004l56.806 43.317a.542.542 0 01.146.674.514.514 0 01-.513.289zm-78.673-26.343l75.917 24.333-54.003-41.174-21.914 16.841z"/><path d="M178.37 217.385a.539.539 0 01-.251-.093l-45.874-31.141a.513.513 0 01-.234-.479.54.54 0 01.296-.451l50.557-26.066a.533.533 0 01.777.525l-4.683 57.206a.516.516 0 01-.309.435.477.477 0 01-.279.064zm-44.77-31.612l44.36 30.11 4.53-55.319-48.89 25.209z"/><path d="M132.511 186.245a.51.51 0 01-.411-.249l-18.492-30.05a.529.529 0 01.175-.734l22.1-14.02a.562.562 0 01.562-.011.526.526 0 01.261.51l-3.609 44.07a.537.537 0 01-.414.484c-.057-.005-.115.005-.172 0zm-17.714-30.418l17.348 28.201 3.388-41.368-20.736 13.167zM381.424 485.493a.468.468 0 01-.142-.026l-42.646-15.896a.57.57 0 01-.296-.254l-14.286-27.634a.563.563 0 01.127-.666.563.563 0 01.677-.016l56.918 43.528a.543.543 0 01.146.688.518.518 0 01-.498.276zm-42.221-16.868l39.071 14.567-52.151-39.886 13.08 25.319z"/><path d="M367.074 501.529a.573.573 0 01-.425-.265.54.54 0 01.066-.628l14.35-16.035c.112-.135.346-.174.461-.179l36.148 4.054a.55.55 0 01.477.499.536.536 0 01-.406.557l-50.499 11.997a.707.707 0 01-.172 0zm14.607-16.015l-13.021 14.562 45.818-10.883-32.797-3.679zM289.707 297.358a.56.56 0 01-.253-.078l-82.573-53.227a.55.55 0 01-.224-.608.566.566 0 01.521-.39l107.376 1.28a.552.552 0 01.454.253.553.553 0 01.03.521l-24.803 51.947a.565.565 0 01-.34.288.702.702 0 01-.188.014zm-80.662-53.2l80.497 51.877 24.176-50.631-104.673-1.246zM338.778 469.597a.507.507 0 01-.385-.218l-27.719-37.051a.544.544 0 01.043-.702.532.532 0 01.696-.058l13.446 9.419a.528.528 0 01.172.186l14.286 27.634a.552.552 0 01-.187.704.548.548 0 01-.352.086zm-25.235-35.221l21.816 29.171-11.242-21.758-10.574-7.413zM406.717 176.577c-.043-.004-.086-.007-.128-.025l-63.983-21.212a.535.535 0 01-.364-.476.568.568 0 01.316-.521l59.743-26.651a.533.533 0 01.487.025.521.521 0 01.269.411l4.241 47.849a.562.562 0 01-.197.473.57.57 0 01-.384.127zm-62.452-21.82l61.883 20.507-4.096-46.283-57.787 25.776zM632.177 319.642a.98.98 0 01-.212-.046l-125.789-52.505a.714.714 0 01-.403-.882.708.708 0 01.845-.478l38.846 8.879.168.057 86.943 43.627a.711.711 0 01.326.933.75.75 0 01-.724.415zm-117.724-50.65l99.072 41.353-68.476-34.359-30.596-6.994zM463.43 452.074a.7.7 0 01-.599-.423.73.73 0 01.322-.938L568.21 396.3a.713.713 0 01.811.11.7.7 0 01.18.791l-6.059 15.118a.69.69 0 01-.406.398l-98.999 39.296a.568.568 0 01-.307.061zm103.724-53.601l-90.616 46.932 85.404-33.89 5.212-13.042zM451.111 227.47a.648.648 0 01-.226-.062l-61.924-27.029a.719.719 0 01-.41-.796.732.732 0 01.695-.577l73.151-.587c.244.006.465.11.593.308a.727.727 0 01.075.668l-11.226 27.617a.713.713 0 01-.393.399.666.666 0 01-.335.059zm-58.497-27.065l58.158 25.397 10.543-25.946-68.701.549z"/><path d="M451.111 227.47a.738.738 0 01-.524-.287.743.743 0 01-.087-.698l11.227-27.617a.692.692 0 01.84-.42l80.396 20.411a.725.725 0 01.542.764.721.721 0 01-.658.651l-91.623 7.22c-.042-.018-.071-.02-.113-.024zm11.719-27.49l-10.559 25.973 86.133-6.776-75.574-19.197z"/><path d="M506.372 267.15a.742.742 0 01-.523-.287.734.734 0 01.013-.863l36.361-46.885a.69.69 0 01.656-.277l70.846 8.923a.718.718 0 01.624.641.73.73 0 01-.479.752l-107.208 37.977c-.087.007-.19.027-.29.019zm36.733-46.855l-34.609 44.64 102.05-36.139-67.441-8.501z"/><path d="M658.444 243.654l-.086-.007-115.711-23.389a.717.717 0 01-.568-.622.703.703 0 01.434-.727l74.184-31.845a.725.725 0 01.859.229l41.527 55.234a.697.697 0 01.034.808.784.784 0 01-.673.319zm-113.256-24.368l111.605 22.564-40.06-53.286-71.545 30.722z"/><path d="M683.235 301.158a.752.752 0 01-.376-.146l-54.186-41.217a.725.725 0 01.084-1.202l29.394-16.287a.738.738 0 01.58-.053.72.72 0 01.428.395l24.792 57.504a.718.718 0 01-.213.846.737.737 0 01-.503.16zm-52.811-41.839l51.139 38.896-23.402-54.267-27.737 15.371z"/><path d="M632.177 319.642a.76.76 0 01-.377-.145L563.652 268.3a.73.73 0 01-.273-.713.738.738 0 01.521-.562l94.416-24.806a.725.725 0 01.704.202.725.725 0 01.157.718l-26.269 76.002a.701.701 0 01-.468.451c-.091.05-.178.058-.263.05zm-66.476-51.592l66.169 49.711 25.513-73.805-91.682 24.094zM613.581 229.174a.826.826 0 01-.351-.115l-79.588-54.004a.723.723 0 01-.279-.814.732.732 0 01.703-.504l41.225.914a.724.724 0 01.566.291l38.364 53.09a.715.715 0 01-.061.916.686.686 0 01-.579.226zm-77.119-53.946l74.204 50.354-35.765-49.509-38.439-.845z"/><path d="M451.992 139.935l-.388 1.381 123.439 34.733.388-1.381-123.439-34.733zM330.724 455.398a.73.73 0 01-.497-.257l-38.5-47.201-.039-.046-60.047-88.106a.725.725 0 01.182-.993.723.723 0 01.994.168l98.546 135.307a.72.72 0 01-.139.996.75.75 0 01-.5.132zm-37.86-48.343l21.945 26.893-56.141-77.094 34.196 50.201zM166.251 85.874a.62.62 0 01-.267-.08l-61.8-31.005a.724.724 0 01-.345-.892.727.727 0 01.843-.449l43.609 10.291c.14.04.279.11.369.232L166.851 84.7a.719.719 0 01.026.909.746.746 0 01-.626.265zm-55.955-29.635l53.05 26.62-15.625-17.785-37.425-8.835z"/><path d="M35.284 18.587l-.532 1.332 113.128 45.17.532-1.333-113.128-45.17zM59.097 43.584l-1.418.215 7.838 51.613 1.418-.215-7.838-51.613zM111.005 156.367a.704.704 0 01-.56-.363l-28.876-50.326 1.239-.719 20.59 35.877-10.79-23.232 1.301-.598 17.813 38.34a.715.715 0 01-.321.938.681.681 0 01-.396.083z"/><g opacity=".3"><path d="M.344.381l278.843 197.327 57.511 31.373 70.865 54.211-70.172-38.598L.344.381zM374.611 509.298L168.385 228.612 376.93 488.536l189.413-90.102-191.732 110.864z"/><path d="M232.065 317.677l-77.987-107.303-21.523-24.672-47.368-80.377 53.892 77.673 53.391 64.293 39.595 70.386zM440.06 470.076l107.121-69.771-118.552-109.618 48.378 32.022 94.523 74.236-6.044 15.119-125.426 58.012zM617.241 538.69l-17.636-14.309-28.075-127.436 45.711 141.745zM.344.381l479.311 241.125 36.054 28.566 161.255 69.8 24.01-15.562-384.695-173.284L.344.381z"/><path d="M646.306 324.483l85.73-20.294-55.072 35.683-30.658-15.389zM764.451 283.171l11.524-48.832-43.075 59.286 31.551-10.454z"/><path d="M824.664 249.017l-9.995 8.895-202.988-71.547 71.371 16.751 141.612 45.901zM.344.381L162.81 52.048l19.769 1.618L.344.381zM242.487 62.788l26.694.53 3.415 4.338-30.109-4.868zM617.241 538.69l-5.862-26.296 65.585-172.522-59.723 198.818zM451.214 126.631l31.876 28.627 1.273-15.552-33.149-13.075zM104.044 147.263l45.802 24.63-21.176 16.614-24.626-41.244zM430.932 430.763l74.414 9.114 66.184-42.932-140.598 33.818zM430.932 430.763l-75.252-59.866 19.532 90.819 55.72-30.953z"/><path d="M730.701 226.818l-1.477-16.41-46.172-7.292 47.649 23.702zM308.568 93.352l42.13 28.532 1.396-17.053-43.526-11.479zM220 156.757l21.652 39.964 42.168 3.453L220 156.757zM496.073 444.169l43.272 24.064-24.034-39.167-19.238 15.103zM578.275 175.37l92.947 22.317 10.17 25.713-103.117-48.03zM64.134 48.559L25.349 31.727.344.381l63.79 48.178zM507.856 264.22l82.36-27.117-44.424-17.567-37.936 44.684zM362.171 183.881l44.59-7.847 58.634 23.105-103.224-15.258zM289.751 296.815l-24.912 59.968-39.647-82.753 64.559 22.785zM85.187 105.325l47.346 36.01-49.42-11.903 2.074-24.107zM247.909 65.635l3.333 13.958-41.456-17.08 38.123 3.122zM264.839 356.783l141.488 58.136-61.048 60.866-80.44-119.002zM562.947 268.731l98.555-25.791 70.534 61.249-169.089-35.458zM454.831 140.627l82.219 33.828 41.225.915-123.444-34.743zM108.782 54.243l42.337 10.187 60.633 28.91-102.97-39.097zM85.187 105.325l-26.414-24.15 46.647 20.627-20.233 3.523z"/><path d="M105.42 101.802l27.464 79.883 14.802-75.329-42.266-4.554zM314.554 244.868l100.079 43.464-46.725-36.909-53.354-6.555zM402.52 128.184l37.584 22.361 66.155 3.473-103.739-25.834zM254.153 94.826l-42.401-1.486 105.818 44.208-63.417-42.722z"/><path d="M401.192 144.394l-57.321-33.689 110.96 29.922-53.639 3.767zM667.744 370.574l9.22-30.702-49.565-23.14 40.345 53.842z"/></g><path d="M533.431 338.093l-.379-.117-61.023-19.761 46.212-15.528.06.149 15.13 35.257zm-60.264-19.885l59.621 19.3-14.756-34.377-44.865 15.077z"/><path d="M648.421 389.096l-1.155-.138-108.757-12.531-5.62-38.925.291.139 115.241 51.455zm-109.598-12.988l107.317 12.369-112.81-50.378 5.493 38.009z"/><path d="M533.007 338.001l-.061-.134-15.107-35.184.313.04 115.179 16.179-1.067.201-99.257 18.898zm-14.585-34.882l14.791 34.467 97.912-18.634-112.703-15.833z"/><path d="M591.212 417.135l.18-.446 40.892-98.362.127.558 15.078 69.991-.121.062-56.156 28.197zm40.959-97.608l-40.265 96.859 55.167-27.703-14.902-69.156z"/><path d="M640.195 453.711l-.406-.321-71.532-56.438.17-.145 48.85-41.948.063.293 22.855 98.559zm-71.376-56.771l70.788 55.859-22.556-97.282-48.232 41.423z"/><path d="M648.279 361.469l-31.242-6.141-110.718-88.758.21-.285 141.75 95.184zm-31.045-6.441l29.374 5.758-136.742-91.839 107.368 86.081z"/><path d="M518.391 303.146l-.297-.068-114.272-23.904 1.061-.129 101.678-12.8.046.147 11.784 36.754zm-112.404-23.881l111.882 23.406-11.555-36.044-100.327 12.638z"/><path d="M404.793 279.613l-9.927-50.474.355.231 33.85 22.457-.142.147-24.136 27.639zm-9.399-49.711l9.607 48.922 23.531-26.926-33.138-21.996z"/><path d="M507.196 266.757l-.794-.151-77.934-14.627.207-.242 22.471-25.228 56.05 40.248zm-78.047-15.01l76.518 14.352-54.488-39.112-22.03 24.76zM472.531 318.415l-.076-.122-44.207-66.965 90.319 51.602-.385.127-45.651 15.358zm-43.162-66.017l43.297 65.596 45.029-15.136-88.326-50.46z"/><path d="M364.822 251.603l-.051-.076-28.21-40.012.584.249 92.542 40.272h-.878l-63.987-.433zm-27.237-39.241l27.411 38.881 62.921.432-90.332-39.313z"/><path d="M333.482 229.265l.046-.212 3.419-17.334.182.059 59.245 17.931-62.892-.444zm3.73-17.092l-3.297 16.725 59.972.42-56.675-17.145z"/><path d="M405.031 279.517l-.231-.163-40.194-27.927.2-.156 53.393-40.31-13.168 68.556zm-39.82-28.098l39.553 27.486 12.889-67.082-52.442 39.596z"/><path d="M395.413 230.019l-.401-.378-64.741-60.286 1.146.583 57.998 29.644.021.088 5.977 30.349zm-63.02-59.167l62.455 58.156-5.771-29.166-56.684-28.99z"/><path d="M337.072 212.133l-.043-.004-56.548-14.127 1.552.026 108.678 1.545-53.639 12.56zm-53.5-13.749l53.516 13.376 50.705-11.879-104.221-1.497z"/><path d="M337.579 212.26l-.536-.13-55.18-13.785-.003-.144-.497-52.105 56.216 66.164zm-55.376-14.204l54.376 13.59-54.851-64.556.475 50.966z"/><path d="M337.315 212.325l-.341-.229-55.699-38.205 50.215-3.962.029.176 5.796 42.22zm-54.998-38.162l54.527 37.404-5.671-41.275-48.856 3.871z"/><path d="M240.726 173.852l-14.93-59.316.477.5 55.955 59.163-41.502-.347zm-14.255-58.066L241 173.5l40.379.342-54.908-58.056z"/><path d="M200.677 143.635l-.05-.091-16.982-32.142.434.15 98.607 35.257-82.009-3.174zm-16.278-31.596l16.494 31.239 79.484 3.083-95.978-34.322z"/><path d="M241.206 174.323l-.475-.528-57.137-62.297 42.683 3.495.033.118 14.896 59.212zm-56.741-62.394l56.041 61.099-14.53-57.7-41.511-3.399z"/><path d="M184.577 111.967l-35.753-4.121-.035-.104-12.53-37.836 48.318 42.061zm-35.495-4.46l34.384 3.966-46.463-40.456 12.079 36.49z"/><path d="M184.19 111.95l-50.794-15.685 52.218-1.711-1.424 17.396zm-48.645-15.394l48.324 14.922 1.355-16.553-49.679 1.63z"/><path d="M183.404 130.509L96.507 70.337l40.212-.075.052.076 46.633 60.171zM97.657 70.705l84.037 58.196-45.149-58.265-38.888.069z"/><path d="M129.677 90.55l-.194-.275-29.011-39.359 36.384 19.442-.055.14-7.124 20.051zm-27.983-38.57l27.872 37.812 6.843-19.255-34.715-18.556zM569.189 397.69l-76.093-59.431.504-.002 39.624-.627.05.091 35.915 59.969zm-75.085-59.09l73.782 57.616-34.878-58.229-38.904.613z"/><path d="M617.446 355.434l-.325-.07-84.507-17.482.393-.241 63.008-37.177.071.193 21.36 54.777zm-83.841-17.715l83.261 17.236-21.022-53.973-62.239 36.737z"/><path d="M536.017 371.719l-.045-.162-18.11-68.987.359.188 99.468 52.523-.498.103-81.174 16.335zm-17.606-68.471l17.871 68.047 80.356-16.186-98.227-51.861z"/><path d="M472.472 318.439l-.042-.191-21.596-92.153.474.542 67.139 76.355-.252.08-45.723 15.367zm-20.969-91.023l21.222 90.568 45.088-15.159-66.31-75.409z"/></g></svg>